<mxfile host="app.diagrams.net" agent="Mozilla/5.0 (Macintosh; Intel Mac OS X 10_15_7) AppleWebKit/537.36 (KHTML, like Gecko) Chrome/137.0.0.0 Safari/537.36" version="27.1.4" pages="12">
  <diagram name="用户访问链路" id="A8cSzCeEmLXzz6vHc0UO">
    <mxGraphModel dx="-531" dy="1657" grid="1" gridSize="10" guides="1" tooltips="1" connect="1" arrows="1" fold="1" page="1" pageScale="1" pageWidth="827" pageHeight="1169" math="0" shadow="0">
      <root>
        <mxCell id="0" />
        <mxCell id="1" parent="0" />
        <mxCell id="3InamGHf78_3qM0vHMMI-1" value="Client" style="rounded=0;whiteSpace=wrap;html=1;fillColor=#ffe6cc;strokeColor=#d79b00;labelBackgroundColor=none;labelBorderColor=none;shadow=1;" parent="1" vertex="1">
          <mxGeometry x="1720" y="560" width="80" height="80" as="geometry" />
        </mxCell>
        <mxCell id="3InamGHf78_3qM0vHMMI-2" value="CDN" style="rounded=0;whiteSpace=wrap;html=1;fillColor=#d5e8d4;strokeColor=#82b366;labelBackgroundColor=none;labelBorderColor=none;shadow=1;" parent="1" vertex="1">
          <mxGeometry x="1920" y="560" width="80" height="520" as="geometry" />
        </mxCell>
        <mxCell id="3InamGHf78_3qM0vHMMI-3" value="Load&lt;br&gt;Balancer" style="rounded=0;whiteSpace=wrap;html=1;fillColor=#d5e8d4;strokeColor=#82b366;labelBackgroundColor=none;labelBorderColor=none;shadow=1;" parent="1" vertex="1">
          <mxGeometry x="2020" y="560" width="80" height="250" as="geometry" />
        </mxCell>
        <mxCell id="3InamGHf78_3qM0vHMMI-4" value="Node SSR" style="rounded=0;whiteSpace=wrap;html=1;fillColor=#dae8fc;strokeColor=#6c8ebf;labelBackgroundColor=none;labelBorderColor=none;shadow=1;" parent="1" vertex="1">
          <mxGeometry x="2120" y="560" width="140" height="90" as="geometry" />
        </mxCell>
        <mxCell id="3InamGHf78_3qM0vHMMI-5" value="Nginx" style="rounded=0;whiteSpace=wrap;html=1;fillColor=#d5e8d4;strokeColor=#82b366;labelBackgroundColor=none;labelBorderColor=none;shadow=1;" parent="1" vertex="1">
          <mxGeometry x="2020" y="1010" width="110" height="70" as="geometry" />
        </mxCell>
        <mxCell id="3InamGHf78_3qM0vHMMI-6" value="S3" style="rounded=0;whiteSpace=wrap;html=1;fillColor=#dae8fc;strokeColor=#6c8ebf;labelBackgroundColor=none;labelBorderColor=none;shadow=1;" parent="1" vertex="1">
          <mxGeometry x="2020" y="830" width="240" height="70" as="geometry" />
        </mxCell>
        <mxCell id="3InamGHf78_3qM0vHMMI-7" value="Lambda" style="rounded=0;whiteSpace=wrap;html=1;fillColor=#dae8fc;strokeColor=#6c8ebf;labelBackgroundColor=none;labelBorderColor=none;shadow=1;" parent="1" vertex="1">
          <mxGeometry x="2020" y="920" width="240" height="70" as="geometry" />
        </mxCell>
        <mxCell id="3InamGHf78_3qM0vHMMI-8" value="EC2" style="rounded=0;whiteSpace=wrap;html=1;fillColor=#dae8fc;strokeColor=#6c8ebf;labelBackgroundColor=none;labelBorderColor=none;shadow=1;" parent="1" vertex="1">
          <mxGeometry x="2150" y="1010" width="110" height="70" as="geometry" />
        </mxCell>
        <mxCell id="3InamGHf78_3qM0vHMMI-9" value="Web Gateway" style="rounded=0;whiteSpace=wrap;html=1;fillColor=#d5e8d4;strokeColor=#82b366;labelBackgroundColor=none;labelBorderColor=none;shadow=1;" parent="1" vertex="1">
          <mxGeometry x="2120" y="670" width="460" height="60" as="geometry" />
        </mxCell>
        <mxCell id="3InamGHf78_3qM0vHMMI-10" value="Data Gateway" style="rounded=0;whiteSpace=wrap;html=1;fillColor=#d5e8d4;strokeColor=#82b366;labelBackgroundColor=none;labelBorderColor=none;shadow=1;" parent="1" vertex="1">
          <mxGeometry x="2120" y="750" width="460" height="57.5" as="geometry" />
        </mxCell>
        <mxCell id="3InamGHf78_3qM0vHMMI-11" value="Load Balancer&lt;br&gt;For Node" style="rounded=0;whiteSpace=wrap;html=1;fillColor=#d5e8d4;strokeColor=#82b366;labelBackgroundColor=none;labelBorderColor=none;shadow=1;" parent="1" vertex="1">
          <mxGeometry x="2280" y="560" width="140" height="90" as="geometry" />
        </mxCell>
        <mxCell id="3InamGHf78_3qM0vHMMI-12" value="Web Gateway&lt;br&gt;For Node" style="rounded=0;whiteSpace=wrap;html=1;fillColor=#d5e8d4;strokeColor=#82b366;labelBackgroundColor=none;labelBorderColor=none;shadow=1;" parent="1" vertex="1">
          <mxGeometry x="2440" y="560" width="140" height="90" as="geometry" />
        </mxCell>
        <mxCell id="3InamGHf78_3qM0vHMMI-13" value="Java Service" style="rounded=0;whiteSpace=wrap;html=1;fillColor=#dae8fc;strokeColor=#6c8ebf;labelBackgroundColor=none;labelBorderColor=none;shadow=1;" parent="1" vertex="1">
          <mxGeometry x="2600" y="560" width="140" height="170" as="geometry" />
        </mxCell>
        <mxCell id="3InamGHf78_3qM0vHMMI-14" value="Cpp Service" style="rounded=0;whiteSpace=wrap;html=1;fillColor=#dae8fc;strokeColor=#6c8ebf;labelBackgroundColor=none;labelBorderColor=none;shadow=1;" parent="1" vertex="1">
          <mxGeometry x="2600" y="750" width="140" height="57.5" as="geometry" />
        </mxCell>
        <mxCell id="3InamGHf78_3qM0vHMMI-15" value="Client" style="rounded=0;whiteSpace=wrap;html=1;fillColor=#ffe6cc;strokeColor=#d79b00;labelBackgroundColor=none;labelBorderColor=none;shadow=1;" parent="1" vertex="1">
          <mxGeometry x="1720" y="660" width="80" height="80" as="geometry" />
        </mxCell>
        <mxCell id="3InamGHf78_3qM0vHMMI-16" value="Client" style="rounded=0;whiteSpace=wrap;html=1;fillColor=#ffe6cc;strokeColor=#d79b00;labelBackgroundColor=none;labelBorderColor=none;shadow=1;" parent="1" vertex="1">
          <mxGeometry x="1720" y="760" width="80" height="80" as="geometry" />
        </mxCell>
        <mxCell id="3InamGHf78_3qM0vHMMI-17" value="Client" style="rounded=0;whiteSpace=wrap;html=1;fillColor=#ffe6cc;strokeColor=#d79b00;labelBackgroundColor=none;labelBorderColor=none;shadow=1;" parent="1" vertex="1">
          <mxGeometry x="1720" y="860" width="80" height="80" as="geometry" />
        </mxCell>
        <mxCell id="3InamGHf78_3qM0vHMMI-18" value="Client" style="rounded=0;whiteSpace=wrap;html=1;fillColor=#ffe6cc;strokeColor=#d79b00;labelBackgroundColor=none;labelBorderColor=none;shadow=1;" parent="1" vertex="1">
          <mxGeometry x="1720" y="960" width="80" height="80" as="geometry" />
        </mxCell>
        <mxCell id="3InamGHf78_3qM0vHMMI-19" value="..." style="rounded=0;whiteSpace=wrap;html=1;fillColor=#ffe6cc;strokeColor=#d79b00;labelBackgroundColor=none;labelBorderColor=none;shadow=1;" parent="1" vertex="1">
          <mxGeometry x="1720" y="1060" width="80" height="20" as="geometry" />
        </mxCell>
        <mxCell id="5E4--wlFpHqgc8M-ZSyI-1" value="DNS" style="rounded=0;whiteSpace=wrap;html=1;fillColor=#fff2cc;strokeColor=#d6b656;labelBackgroundColor=none;labelBorderColor=none;shadow=1;" parent="1" vertex="1">
          <mxGeometry x="1820" y="560" width="80" height="520" as="geometry" />
        </mxCell>
      </root>
    </mxGraphModel>
  </diagram>
  <diagram id="lMETB03nsZsaU9_dPaBz" name="temp">
    <mxGraphModel dx="1528" dy="1160" grid="1" gridSize="10" guides="1" tooltips="1" connect="1" arrows="1" fold="1" page="1" pageScale="1" pageWidth="827" pageHeight="1169" math="0" shadow="0">
      <root>
        <mxCell id="0" />
        <mxCell id="1" parent="0" />
        <mxCell id="0kDOh-PKD5DbnYyAPSaU-1" value="内网" style="rounded=0;whiteSpace=wrap;html=1;fillColor=#f5f5f5;strokeColor=none;labelBackgroundColor=none;labelBorderColor=none;shadow=1;fontColor=#333333;verticalAlign=top;align=left;" vertex="1" parent="1">
          <mxGeometry x="160" y="950" width="510" height="640" as="geometry" />
        </mxCell>
        <mxCell id="0kDOh-PKD5DbnYyAPSaU-2" value="公网" style="rounded=0;whiteSpace=wrap;html=1;fillColor=#f5f5f5;strokeColor=none;labelBackgroundColor=none;labelBorderColor=none;shadow=1;fontColor=#333333;verticalAlign=top;align=left;" vertex="1" parent="1">
          <mxGeometry x="730" y="950" width="510" height="640" as="geometry" />
        </mxCell>
        <mxCell id="0kDOh-PKD5DbnYyAPSaU-3" value="办公网" style="rounded=0;whiteSpace=wrap;html=1;labelBackgroundColor=none;labelBorderColor=none;shadow=1;verticalAlign=top;align=left;strokeColor=none;" vertex="1" parent="1">
          <mxGeometry x="195.5" y="1370" width="439" height="180" as="geometry" />
        </mxCell>
        <mxCell id="0kDOh-PKD5DbnYyAPSaU-4" value="CMS 网络" style="rounded=0;whiteSpace=wrap;html=1;labelBackgroundColor=none;labelBorderColor=none;shadow=1;verticalAlign=top;align=left;strokeColor=none;" vertex="1" parent="1">
          <mxGeometry x="195.5" y="1150" width="439" height="180" as="geometry" />
        </mxCell>
        <mxCell id="0kDOh-PKD5DbnYyAPSaU-5" value="CMS 后台" style="rounded=0;whiteSpace=wrap;html=1;fillColor=#d5e8d4;strokeColor=none;labelBackgroundColor=none;labelBorderColor=none;shadow=1;" vertex="1" parent="1">
          <mxGeometry x="280" y="1420" width="140" height="90" as="geometry" />
        </mxCell>
        <mxCell id="0kDOh-PKD5DbnYyAPSaU-6" value="&lt;b&gt;CMS 服务（strapi）&lt;br&gt;&lt;/b&gt;&lt;br&gt;18.142.63.51（fat）&lt;div&gt;52.220.239.10（prod）&lt;/div&gt;" style="rounded=0;whiteSpace=wrap;html=1;fillColor=#d5e8d4;strokeColor=none;labelBackgroundColor=none;labelBorderColor=none;shadow=1;" vertex="1" parent="1">
          <mxGeometry x="270" y="1195" width="290" height="90" as="geometry" />
        </mxCell>
        <mxCell id="0kDOh-PKD5DbnYyAPSaU-7" value="用户网络" style="rounded=0;whiteSpace=wrap;html=1;labelBackgroundColor=none;labelBorderColor=none;shadow=1;verticalAlign=top;align=left;strokeColor=none;" vertex="1" parent="1">
          <mxGeometry x="765.5" y="1370" width="439" height="180" as="geometry" />
        </mxCell>
        <mxCell id="0kDOh-PKD5DbnYyAPSaU-8" value="CMS 前台页面" style="rounded=0;whiteSpace=wrap;html=1;fillColor=#d5e8d4;strokeColor=none;labelBackgroundColor=none;labelBorderColor=none;shadow=1;" vertex="1" parent="1">
          <mxGeometry x="850" y="1420" width="140" height="90" as="geometry" />
        </mxCell>
        <mxCell id="0kDOh-PKD5DbnYyAPSaU-9" value="Api Third（DW 服务出口）" style="rounded=0;whiteSpace=wrap;html=1;fillColor=#d5e8d4;strokeColor=none;labelBackgroundColor=none;labelBorderColor=none;shadow=1;" vertex="1" parent="1">
          <mxGeometry x="1030" y="1420" width="140" height="90" as="geometry" />
        </mxCell>
        <mxCell id="0kDOh-PKD5DbnYyAPSaU-10" value="AWS 网络" style="rounded=0;whiteSpace=wrap;html=1;labelBackgroundColor=none;labelBorderColor=none;shadow=1;verticalAlign=top;align=left;strokeColor=none;" vertex="1" parent="1">
          <mxGeometry x="765.5" y="1000" width="439" height="280" as="geometry" />
        </mxCell>
        <mxCell id="0kDOh-PKD5DbnYyAPSaU-11" value="RDS (mysql)" style="rounded=0;whiteSpace=wrap;html=1;fillColor=#d5e8d4;strokeColor=none;labelBackgroundColor=none;labelBorderColor=none;shadow=1;" vertex="1" parent="1">
          <mxGeometry x="810" y="1040" width="140" height="90" as="geometry" />
        </mxCell>
        <mxCell id="0kDOh-PKD5DbnYyAPSaU-12" value="OSS" style="rounded=0;whiteSpace=wrap;html=1;fillColor=#d5e8d4;strokeColor=none;labelBackgroundColor=none;labelBorderColor=none;shadow=1;" vertex="1" parent="1">
          <mxGeometry x="810" y="1160" width="140" height="90" as="geometry" />
        </mxCell>
        <mxCell id="0kDOh-PKD5DbnYyAPSaU-13" value="Lambda" style="rounded=0;whiteSpace=wrap;html=1;fillColor=#d5e8d4;strokeColor=none;labelBackgroundColor=none;labelBorderColor=none;shadow=1;" vertex="1" parent="1">
          <mxGeometry x="1020" y="1040" width="140" height="90" as="geometry" />
        </mxCell>
      </root>
    </mxGraphModel>
  </diagram>
  <diagram name="CMS" id="SrBlA16GAB4sXe6czYs1">
    <mxGraphModel dx="-381" dy="2136" grid="1" gridSize="10" guides="1" tooltips="1" connect="1" arrows="1" fold="1" page="1" pageScale="1" pageWidth="827" pageHeight="1169" math="0" shadow="0">
      <root>
        <mxCell id="RuAyS5kQikPbMtsUxQxa-0" />
        <mxCell id="RuAyS5kQikPbMtsUxQxa-1" parent="RuAyS5kQikPbMtsUxQxa-0" />
        <mxCell id="NuILZa4hiqY3Oqihs5Eh-15" value="" style="rounded=0;whiteSpace=wrap;html=1;fillColor=#f5f5f5;strokeColor=none;labelBackgroundColor=none;labelBorderColor=none;shadow=1;fontColor=#333333;verticalAlign=top;align=left;" vertex="1" parent="RuAyS5kQikPbMtsUxQxa-1">
          <mxGeometry x="1780" y="-880" width="990" height="630" as="geometry" />
        </mxCell>
        <mxCell id="NuILZa4hiqY3Oqihs5Eh-17" value="内部网络" style="rounded=0;whiteSpace=wrap;html=1;labelBackgroundColor=none;labelBorderColor=none;shadow=1;verticalAlign=top;align=left;strokeColor=none;" vertex="1" parent="RuAyS5kQikPbMtsUxQxa-1">
          <mxGeometry x="1815" y="-726.5" width="920" height="313" as="geometry" />
        </mxCell>
        <mxCell id="NuILZa4hiqY3Oqihs5Eh-18" value="公网" style="rounded=0;whiteSpace=wrap;html=1;labelBackgroundColor=none;labelBorderColor=none;shadow=1;verticalAlign=top;align=left;strokeColor=none;" vertex="1" parent="RuAyS5kQikPbMtsUxQxa-1">
          <mxGeometry x="1815" y="-390" width="920" height="110" as="geometry" />
        </mxCell>
        <mxCell id="NuILZa4hiqY3Oqihs5Eh-19" value="CMS 前台页面" style="rounded=0;whiteSpace=wrap;html=1;fillColor=#FFE599;strokeColor=none;labelBackgroundColor=none;labelBorderColor=none;shadow=1;" vertex="1" parent="RuAyS5kQikPbMtsUxQxa-1">
          <mxGeometry x="2205" y="-370" width="140" height="70" as="geometry" />
        </mxCell>
        <mxCell id="NuILZa4hiqY3Oqihs5Eh-54" style="edgeStyle=none;shape=connector;rounded=0;orthogonalLoop=1;jettySize=auto;html=1;entryX=0.5;entryY=1;entryDx=0;entryDy=0;strokeColor=#B9E0A5;align=center;verticalAlign=middle;fontFamily=Helvetica;fontSize=11;fontColor=default;labelBackgroundColor=default;endArrow=classic;strokeWidth=2;" edge="1" parent="RuAyS5kQikPbMtsUxQxa-1" source="NuILZa4hiqY3Oqihs5Eh-20" target="NuILZa4hiqY3Oqihs5Eh-26">
          <mxGeometry relative="1" as="geometry" />
        </mxCell>
        <mxCell id="NuILZa4hiqY3Oqihs5Eh-20" value="CMS 管理后台" style="rounded=0;whiteSpace=wrap;html=1;fillColor=#FFE599;strokeColor=none;labelBackgroundColor=none;labelBorderColor=none;shadow=1;" vertex="1" parent="RuAyS5kQikPbMtsUxQxa-1">
          <mxGeometry x="2000" y="-526" width="140" height="60" as="geometry" />
        </mxCell>
        <mxCell id="NuILZa4hiqY3Oqihs5Eh-22" value="web gateway" style="rounded=0;whiteSpace=wrap;html=1;fillColor=#d5e8d4;strokeColor=none;labelBackgroundColor=none;labelBorderColor=none;shadow=1;" vertex="1" parent="RuAyS5kQikPbMtsUxQxa-1">
          <mxGeometry x="2324.75" y="-580" width="140" height="60" as="geometry" />
        </mxCell>
        <mxCell id="NuILZa4hiqY3Oqihs5Eh-23" value="api third gateway&amp;nbsp;" style="rounded=0;whiteSpace=wrap;html=1;fillColor=#d5e8d4;strokeColor=none;labelBackgroundColor=none;labelBorderColor=none;shadow=1;" vertex="1" parent="RuAyS5kQikPbMtsUxQxa-1">
          <mxGeometry x="2519.25" y="-580" width="140" height="60" as="geometry" />
        </mxCell>
        <mxCell id="NuILZa4hiqY3Oqihs5Eh-24" value="java service" style="rounded=0;whiteSpace=wrap;html=1;fillColor=#d5e8d4;strokeColor=none;labelBackgroundColor=none;labelBorderColor=none;shadow=1;" vertex="1" parent="RuAyS5kQikPbMtsUxQxa-1">
          <mxGeometry x="2324.75" y="-680" width="140" height="60" as="geometry" />
        </mxCell>
        <mxCell id="NuILZa4hiqY3Oqihs5Eh-25" value="data warehouse service" style="rounded=0;whiteSpace=wrap;html=1;fillColor=#d5e8d4;strokeColor=none;labelBackgroundColor=none;labelBorderColor=none;shadow=1;" vertex="1" parent="RuAyS5kQikPbMtsUxQxa-1">
          <mxGeometry x="2519.25" y="-680" width="140" height="60" as="geometry" />
        </mxCell>
        <mxCell id="NuILZa4hiqY3Oqihs5Eh-55" style="edgeStyle=none;shape=connector;rounded=0;orthogonalLoop=1;jettySize=auto;html=1;exitX=0.75;exitY=1;exitDx=0;exitDy=0;entryX=0;entryY=0.25;entryDx=0;entryDy=0;strokeColor=#B9E0A5;align=center;verticalAlign=middle;fontFamily=Helvetica;fontSize=11;fontColor=default;labelBackgroundColor=default;endArrow=classic;strokeWidth=2;" edge="1" parent="RuAyS5kQikPbMtsUxQxa-1" source="NuILZa4hiqY3Oqihs5Eh-26" target="NuILZa4hiqY3Oqihs5Eh-22">
          <mxGeometry relative="1" as="geometry">
            <Array as="points">
              <mxPoint x="2105" y="-565" />
            </Array>
          </mxGeometry>
        </mxCell>
        <mxCell id="cflfslesy3EXh3rs1mC4-2" style="edgeStyle=none;shape=connector;rounded=0;orthogonalLoop=1;jettySize=auto;html=1;exitX=1;exitY=0.5;exitDx=0;exitDy=0;entryX=0.25;entryY=0;entryDx=0;entryDy=0;strokeColor=#B9E0A5;align=center;verticalAlign=middle;fontFamily=Helvetica;fontSize=11;fontColor=default;labelBackgroundColor=default;endArrow=classic;strokeWidth=2;" edge="1" parent="RuAyS5kQikPbMtsUxQxa-1" source="NuILZa4hiqY3Oqihs5Eh-26" target="NuILZa4hiqY3Oqihs5Eh-23">
          <mxGeometry relative="1" as="geometry">
            <Array as="points">
              <mxPoint x="2170" y="-650" />
              <mxPoint x="2170" y="-610" />
              <mxPoint x="2554" y="-610" />
            </Array>
          </mxGeometry>
        </mxCell>
        <mxCell id="NuILZa4hiqY3Oqihs5Eh-26" value="CMS service&lt;div&gt;(strapi)&lt;/div&gt;" style="rounded=0;whiteSpace=wrap;html=1;fillColor=#d5e8d4;strokeColor=none;labelBackgroundColor=none;labelBorderColor=none;shadow=1;" vertex="1" parent="RuAyS5kQikPbMtsUxQxa-1">
          <mxGeometry x="2000" y="-680" width="140" height="60" as="geometry" />
        </mxCell>
        <mxCell id="NuILZa4hiqY3Oqihs5Eh-35" value="AWS 网络" style="rounded=0;whiteSpace=wrap;html=1;labelBackgroundColor=none;labelBorderColor=none;shadow=1;verticalAlign=top;align=left;strokeColor=none;" vertex="1" parent="RuAyS5kQikPbMtsUxQxa-1">
          <mxGeometry x="1815" y="-858.75" width="920" height="110" as="geometry" />
        </mxCell>
        <mxCell id="NuILZa4hiqY3Oqihs5Eh-32" value="" style="group" vertex="1" connectable="0" parent="RuAyS5kQikPbMtsUxQxa-1">
          <mxGeometry x="2410" y="-830" width="160" height="52.5" as="geometry" />
        </mxCell>
        <mxCell id="NuILZa4hiqY3Oqihs5Eh-31" value="..." style="rounded=0;whiteSpace=wrap;html=1;fillColor=#d5e8d4;strokeColor=none;labelBackgroundColor=none;labelBorderColor=none;shadow=1;" vertex="1" parent="NuILZa4hiqY3Oqihs5Eh-32">
          <mxGeometry x="60" width="100" height="35" as="geometry" />
        </mxCell>
        <mxCell id="NuILZa4hiqY3Oqihs5Eh-30" value="EC2" style="rounded=0;whiteSpace=wrap;html=1;fillColor=#d5e8d4;strokeColor=none;labelBackgroundColor=none;labelBorderColor=none;shadow=1;" vertex="1" parent="NuILZa4hiqY3Oqihs5Eh-32">
          <mxGeometry y="17.5" width="100" height="35" as="geometry" />
        </mxCell>
        <mxCell id="NuILZa4hiqY3Oqihs5Eh-39" value="" style="endArrow=none;html=1;rounded=0;entryX=0.5;entryY=0;entryDx=0;entryDy=0;exitX=0.5;exitY=1;exitDx=0;exitDy=0;" edge="1" parent="RuAyS5kQikPbMtsUxQxa-1" source="NuILZa4hiqY3Oqihs5Eh-17" target="NuILZa4hiqY3Oqihs5Eh-17">
          <mxGeometry width="50" height="50" relative="1" as="geometry">
            <mxPoint x="2370" y="-330" as="sourcePoint" />
            <mxPoint x="2420" y="-380" as="targetPoint" />
          </mxGeometry>
        </mxCell>
        <mxCell id="NuILZa4hiqY3Oqihs5Eh-40" value="" style="endArrow=none;html=1;rounded=0;entryX=0.5;entryY=0;entryDx=0;entryDy=0;exitX=0.5;exitY=1;exitDx=0;exitDy=0;" edge="1" parent="RuAyS5kQikPbMtsUxQxa-1" source="NuILZa4hiqY3Oqihs5Eh-35" target="NuILZa4hiqY3Oqihs5Eh-35">
          <mxGeometry width="50" height="50" relative="1" as="geometry">
            <mxPoint x="2280" y="-397" as="sourcePoint" />
            <mxPoint x="2280" y="-710" as="targetPoint" />
          </mxGeometry>
        </mxCell>
        <mxCell id="NuILZa4hiqY3Oqihs5Eh-41" value="" style="endArrow=classic;html=1;rounded=0;strokeColor=#FF0000;" edge="1" parent="RuAyS5kQikPbMtsUxQxa-1">
          <mxGeometry relative="1" as="geometry">
            <mxPoint x="2224.75" y="-820" as="sourcePoint" />
            <mxPoint x="2324.75" y="-820" as="targetPoint" />
          </mxGeometry>
        </mxCell>
        <mxCell id="NuILZa4hiqY3Oqihs5Eh-44" value="No" style="edgeLabel;html=1;align=center;verticalAlign=middle;resizable=0;points=[];fontColor=#FF0000;" vertex="1" connectable="0" parent="NuILZa4hiqY3Oqihs5Eh-41">
          <mxGeometry x="0.19" y="3" relative="1" as="geometry">
            <mxPoint x="-14" y="3" as="offset" />
          </mxGeometry>
        </mxCell>
        <mxCell id="NuILZa4hiqY3Oqihs5Eh-45" value="" style="endArrow=classic;html=1;rounded=0;strokeColor=#FF0000;" edge="1" parent="RuAyS5kQikPbMtsUxQxa-1">
          <mxGeometry relative="1" as="geometry">
            <mxPoint x="2320" y="-803" as="sourcePoint" />
            <mxPoint x="2220" y="-803" as="targetPoint" />
          </mxGeometry>
        </mxCell>
        <mxCell id="NuILZa4hiqY3Oqihs5Eh-46" value="No" style="edgeLabel;html=1;align=center;verticalAlign=middle;resizable=0;points=[];fontColor=#FF0000;" vertex="1" connectable="0" parent="NuILZa4hiqY3Oqihs5Eh-45">
          <mxGeometry x="0.19" y="3" relative="1" as="geometry">
            <mxPoint x="9" y="-4" as="offset" />
          </mxGeometry>
        </mxCell>
        <mxCell id="NuILZa4hiqY3Oqihs5Eh-53" value="" style="endArrow=none;html=1;rounded=0;entryX=0;entryY=0.5;entryDx=0;entryDy=0;exitX=1;exitY=0.5;exitDx=0;exitDy=0;" edge="1" parent="RuAyS5kQikPbMtsUxQxa-1">
          <mxGeometry width="50" height="50" relative="1" as="geometry">
            <mxPoint x="2735" y="-600" as="sourcePoint" />
            <mxPoint x="1815" y="-600" as="targetPoint" />
          </mxGeometry>
        </mxCell>
        <mxCell id="NuILZa4hiqY3Oqihs5Eh-28" value="OSS" style="rounded=0;whiteSpace=wrap;html=1;fillColor=#d5e8d4;strokeColor=none;labelBackgroundColor=none;labelBorderColor=none;shadow=1;" vertex="1" parent="RuAyS5kQikPbMtsUxQxa-1">
          <mxGeometry x="1930" y="-800" width="100" height="35" as="geometry" />
        </mxCell>
        <mxCell id="NuILZa4hiqY3Oqihs5Eh-59" style="edgeStyle=none;shape=connector;rounded=0;orthogonalLoop=1;jettySize=auto;html=1;exitX=0.25;exitY=0;exitDx=0;exitDy=0;entryX=0.75;entryY=1;entryDx=0;entryDy=0;strokeColor=#B9E0A5;align=center;verticalAlign=middle;fontFamily=Helvetica;fontSize=11;fontColor=default;labelBackgroundColor=default;endArrow=classic;strokeWidth=2;" edge="1" parent="RuAyS5kQikPbMtsUxQxa-1" source="NuILZa4hiqY3Oqihs5Eh-29" target="NuILZa4hiqY3Oqihs5Eh-27">
          <mxGeometry relative="1" as="geometry" />
        </mxCell>
        <mxCell id="NuILZa4hiqY3Oqihs5Eh-29" value="Lambda" style="rounded=0;whiteSpace=wrap;html=1;fillColor=#d5e8d4;strokeColor=none;labelBackgroundColor=none;labelBorderColor=none;shadow=1;" vertex="1" parent="RuAyS5kQikPbMtsUxQxa-1">
          <mxGeometry x="2060" y="-800" width="100" height="35" as="geometry" />
        </mxCell>
        <mxCell id="NuILZa4hiqY3Oqihs5Eh-27" value="RDS&amp;nbsp;&lt;span style=&quot;background-color: transparent; color: light-dark(rgb(0, 0, 0), rgb(255, 255, 255));&quot;&gt;(mysql)&lt;/span&gt;" style="rounded=0;whiteSpace=wrap;html=1;fillColor=#d5e8d4;strokeColor=none;labelBackgroundColor=none;labelBorderColor=none;shadow=1;" vertex="1" parent="RuAyS5kQikPbMtsUxQxa-1">
          <mxGeometry x="2000" y="-855" width="100" height="35" as="geometry" />
        </mxCell>
        <mxCell id="NuILZa4hiqY3Oqihs5Eh-60" style="edgeStyle=none;shape=connector;rounded=0;orthogonalLoop=1;jettySize=auto;html=1;exitX=0;exitY=0.25;exitDx=0;exitDy=0;entryX=0.25;entryY=1;entryDx=0;entryDy=0;strokeColor=#B9E0A5;align=center;verticalAlign=middle;fontFamily=Helvetica;fontSize=11;fontColor=default;labelBackgroundColor=default;endArrow=classic;strokeWidth=2;" edge="1" parent="RuAyS5kQikPbMtsUxQxa-1" source="NuILZa4hiqY3Oqihs5Eh-19" target="NuILZa4hiqY3Oqihs5Eh-28">
          <mxGeometry relative="1" as="geometry">
            <Array as="points">
              <mxPoint x="1950" y="-352" />
            </Array>
          </mxGeometry>
        </mxCell>
        <mxCell id="NuILZa4hiqY3Oqihs5Eh-61" style="edgeStyle=none;shape=connector;rounded=0;orthogonalLoop=1;jettySize=auto;html=1;exitX=0.25;exitY=0;exitDx=0;exitDy=0;entryX=1;entryY=0.5;entryDx=0;entryDy=0;strokeColor=#B9E0A5;align=center;verticalAlign=middle;fontFamily=Helvetica;fontSize=11;fontColor=default;labelBackgroundColor=default;endArrow=classic;strokeWidth=2;" edge="1" parent="RuAyS5kQikPbMtsUxQxa-1" source="NuILZa4hiqY3Oqihs5Eh-19" target="NuILZa4hiqY3Oqihs5Eh-29">
          <mxGeometry relative="1" as="geometry">
            <Array as="points">
              <mxPoint x="2240" y="-782" />
            </Array>
          </mxGeometry>
        </mxCell>
        <mxCell id="NuILZa4hiqY3Oqihs5Eh-49" value="" style="endArrow=classic;html=1;rounded=0;strokeColor=#FF0000;" edge="1" parent="RuAyS5kQikPbMtsUxQxa-1">
          <mxGeometry relative="1" as="geometry">
            <mxPoint x="2205" y="-650.5" as="sourcePoint" />
            <mxPoint x="2305" y="-650.5" as="targetPoint" />
          </mxGeometry>
        </mxCell>
        <mxCell id="NuILZa4hiqY3Oqihs5Eh-50" value="No" style="edgeLabel;html=1;align=center;verticalAlign=middle;resizable=0;points=[];fontColor=#FF0000;" vertex="1" connectable="0" parent="NuILZa4hiqY3Oqihs5Eh-49">
          <mxGeometry x="0.19" y="3" relative="1" as="geometry">
            <mxPoint x="-14" y="3" as="offset" />
          </mxGeometry>
        </mxCell>
        <mxCell id="NuILZa4hiqY3Oqihs5Eh-51" value="" style="endArrow=classic;html=1;rounded=0;strokeColor=#FF0000;" edge="1" parent="RuAyS5kQikPbMtsUxQxa-1">
          <mxGeometry relative="1" as="geometry">
            <mxPoint x="2305" y="-630" as="sourcePoint" />
            <mxPoint x="2205" y="-630" as="targetPoint" />
          </mxGeometry>
        </mxCell>
        <mxCell id="NuILZa4hiqY3Oqihs5Eh-52" value="No" style="edgeLabel;html=1;align=center;verticalAlign=middle;resizable=0;points=[];fontColor=#FF0000;" vertex="1" connectable="0" parent="NuILZa4hiqY3Oqihs5Eh-51">
          <mxGeometry x="0.19" y="3" relative="1" as="geometry">
            <mxPoint x="5" y="-3" as="offset" />
          </mxGeometry>
        </mxCell>
        <mxCell id="cflfslesy3EXh3rs1mC4-0" style="edgeStyle=none;shape=connector;rounded=0;orthogonalLoop=1;jettySize=auto;html=1;exitX=0;exitY=0.25;exitDx=0;exitDy=0;entryX=0.5;entryY=1;entryDx=0;entryDy=0;strokeColor=#B9E0A5;align=center;verticalAlign=middle;fontFamily=Helvetica;fontSize=11;fontColor=default;labelBackgroundColor=default;endArrow=classic;strokeWidth=2;" edge="1" parent="RuAyS5kQikPbMtsUxQxa-1" source="NuILZa4hiqY3Oqihs5Eh-26" target="NuILZa4hiqY3Oqihs5Eh-28">
          <mxGeometry relative="1" as="geometry">
            <Array as="points">
              <mxPoint x="1980" y="-665" />
            </Array>
          </mxGeometry>
        </mxCell>
        <mxCell id="cflfslesy3EXh3rs1mC4-1" style="edgeStyle=none;shape=connector;rounded=0;orthogonalLoop=1;jettySize=auto;html=1;exitX=0.25;exitY=0;exitDx=0;exitDy=0;entryX=0.5;entryY=1;entryDx=0;entryDy=0;strokeColor=#B9E0A5;align=center;verticalAlign=middle;fontFamily=Helvetica;fontSize=11;fontColor=default;labelBackgroundColor=default;endArrow=classic;strokeWidth=2;" edge="1" parent="RuAyS5kQikPbMtsUxQxa-1" source="NuILZa4hiqY3Oqihs5Eh-26" target="NuILZa4hiqY3Oqihs5Eh-27">
          <mxGeometry relative="1" as="geometry">
            <Array as="points">
              <mxPoint x="2035" y="-740" />
              <mxPoint x="2050" y="-740" />
            </Array>
          </mxGeometry>
        </mxCell>
      </root>
    </mxGraphModel>
  </diagram>
  <diagram id="ObkdwBIYuCy_eEvsJ9N0" name="ssr-akamai">
    <mxGraphModel dx="873" dy="1289" grid="1" gridSize="10" guides="1" tooltips="1" connect="1" arrows="1" fold="1" page="1" pageScale="1" pageWidth="827" pageHeight="1169" math="0" shadow="0">
      <root>
        <mxCell id="0" />
        <mxCell id="1" parent="0" />
        <mxCell id="AkQTKON36vLjXnysKoA2-1" value="" style="rounded=0;whiteSpace=wrap;html=1;fillColor=#f8cecc;strokeColor=#b85450;" vertex="1" parent="1">
          <mxGeometry x="40" y="220" width="80" height="250" as="geometry" />
        </mxCell>
        <mxCell id="AkQTKON36vLjXnysKoA2-2" value="&lt;div&gt;&lt;span style=&quot;background-color: transparent; color: light-dark(rgb(0, 0, 0), rgb(255, 255, 255));&quot;&gt;CloudFront =&amp;gt; Akamai&lt;/span&gt;&lt;/div&gt;" style="rounded=0;whiteSpace=wrap;html=1;fillColor=#f8cecc;strokeColor=#b85450;" vertex="1" parent="1">
          <mxGeometry x="170" y="220" width="80" height="250" as="geometry" />
        </mxCell>
        <mxCell id="AkQTKON36vLjXnysKoA2-3" value="" style="rounded=0;whiteSpace=wrap;html=1;" vertex="1" parent="1">
          <mxGeometry x="294" y="220" width="80" height="250" as="geometry" />
        </mxCell>
        <mxCell id="AkQTKON36vLjXnysKoA2-4" value="DNS" style="text;html=1;align=left;verticalAlign=middle;whiteSpace=wrap;rounded=0;" vertex="1" parent="1">
          <mxGeometry x="40" y="190" width="60" height="30" as="geometry" />
        </mxCell>
        <mxCell id="AkQTKON36vLjXnysKoA2-5" value="CDN" style="text;html=1;align=left;verticalAlign=middle;whiteSpace=wrap;rounded=0;" vertex="1" parent="1">
          <mxGeometry x="170" y="190" width="60" height="30" as="geometry" />
        </mxCell>
        <mxCell id="AkQTKON36vLjXnysKoA2-6" value="LB" style="text;html=1;align=left;verticalAlign=middle;whiteSpace=wrap;rounded=0;" vertex="1" parent="1">
          <mxGeometry x="294" y="190" width="60" height="30" as="geometry" />
        </mxCell>
        <mxCell id="AkQTKON36vLjXnysKoA2-7" value="Node" style="rounded=0;whiteSpace=wrap;html=1;fillColor=#f8cecc;strokeColor=#b85450;" vertex="1" parent="1">
          <mxGeometry x="420" y="220" width="80" height="80" as="geometry" />
        </mxCell>
        <mxCell id="AkQTKON36vLjXnysKoA2-8" value="Webgateway" style="rounded=0;whiteSpace=wrap;html=1;" vertex="1" parent="1">
          <mxGeometry x="420" y="305" width="80" height="80" as="geometry" />
        </mxCell>
        <mxCell id="AkQTKON36vLjXnysKoA2-9" value="Datagateway" style="rounded=0;whiteSpace=wrap;html=1;" vertex="1" parent="1">
          <mxGeometry x="420" y="390" width="80" height="80" as="geometry" />
        </mxCell>
        <mxCell id="AkQTKON36vLjXnysKoA2-10" value="Webgateway" style="rounded=0;whiteSpace=wrap;html=1;fillColor=#f8cecc;strokeColor=#b85450;" vertex="1" parent="1">
          <mxGeometry x="660" y="220" width="80" height="80" as="geometry" />
        </mxCell>
        <mxCell id="AkQTKON36vLjXnysKoA2-11" value="LB" style="rounded=0;whiteSpace=wrap;html=1;fillColor=#f8cecc;strokeColor=#b85450;" vertex="1" parent="1">
          <mxGeometry x="540" y="220" width="80" height="80" as="geometry" />
        </mxCell>
        <mxCell id="AkQTKON36vLjXnysKoA2-12" value="" style="rounded=0;whiteSpace=wrap;html=1;fillColor=#f8cecc;strokeColor=#b85450;" vertex="1" parent="1">
          <mxGeometry x="294" y="220" width="80" height="80" as="geometry" />
        </mxCell>
        <mxCell id="AkQTKON36vLjXnysKoA2-13" value="Fallback S3" style="rounded=0;whiteSpace=wrap;html=1;fillColor=#f8cecc;strokeColor=#b85450;" vertex="1" parent="1">
          <mxGeometry x="260" y="40" width="80" height="80" as="geometry" />
        </mxCell>
        <mxCell id="AkQTKON36vLjXnysKoA2-14" value="" style="endArrow=classic;html=1;rounded=0;entryX=0;entryY=0.5;entryDx=0;entryDy=0;exitX=0.5;exitY=0;exitDx=0;exitDy=0;curved=0;strokeColor=default;dashed=1;" edge="1" parent="1" source="AkQTKON36vLjXnysKoA2-2" target="AkQTKON36vLjXnysKoA2-13">
          <mxGeometry width="50" height="50" relative="1" as="geometry">
            <mxPoint x="440" y="240" as="sourcePoint" />
            <mxPoint x="490" y="190" as="targetPoint" />
            <Array as="points">
              <mxPoint x="210" y="90" />
            </Array>
          </mxGeometry>
        </mxCell>
      </root>
    </mxGraphModel>
  </diagram>
  <diagram id="V0VanxjdUBzcPhVSj8UI" name="uta-2">
    <mxGraphModel dx="1310" dy="1933" grid="1" gridSize="10" guides="1" tooltips="1" connect="1" arrows="1" fold="1" page="1" pageScale="1" pageWidth="827" pageHeight="1169" math="0" shadow="0">
      <root>
        <mxCell id="0" />
        <mxCell id="1" parent="0" />
        <mxCell id="NQ_tfFXzwYJ-sqFzQedk-1" value="&lt;span style=&quot;text-align: left;&quot;&gt;&lt;b&gt;&lt;font style=&quot;font-size: 13px;&quot;&gt;合约可用保证金&amp;nbsp;&lt;/font&gt;&lt;/b&gt;&lt;/span&gt;&lt;span style=&quot;font-size: 13px;&quot;&gt;&lt;b&gt;availableMarginForPerp&lt;/b&gt;&lt;/span&gt;" style="swimlane;fontStyle=0;childLayout=stackLayout;horizontal=1;startSize=30;horizontalStack=0;resizeParent=1;resizeParentMax=0;resizeLast=0;collapsible=1;marginBottom=0;whiteSpace=wrap;html=1;" vertex="1" parent="1">
          <mxGeometry x="910" y="1114" width="280" height="80" as="geometry">
            <mxRectangle x="290" y="260" width="60" height="30" as="alternateBounds" />
          </mxGeometry>
        </mxCell>
        <mxCell id="NQ_tfFXzwYJ-sqFzQedk-2" value="有效保证金 - 占用保证金 - 跨资产合约预留保证" style="text;strokeColor=none;fillColor=none;align=left;verticalAlign=middle;spacingLeft=4;spacingRight=4;overflow=hidden;points=[[0,0.5],[1,0.5]];portConstraint=eastwest;rotatable=0;whiteSpace=wrap;html=1;" vertex="1" parent="NQ_tfFXzwYJ-sqFzQedk-1">
          <mxGeometry y="30" width="280" height="50" as="geometry" />
        </mxCell>
        <mxCell id="NQ_tfFXzwYJ-sqFzQedk-3" value="&lt;span style=&quot;text-align: left;&quot;&gt;有效保证金&amp;nbsp;&lt;/span&gt;&lt;span style=&quot;font-family: &amp;quot;JetBrains Mono&amp;quot;, monospace; font-size: 9pt; background-color: rgb(255, 255, 255); color: rgb(8, 8, 8);&quot;&gt;effectiveMargin&lt;/span&gt;" style="swimlane;fontStyle=0;childLayout=stackLayout;horizontal=1;startSize=30;horizontalStack=0;resizeParent=1;resizeParentMax=0;resizeLast=0;collapsible=1;marginBottom=0;whiteSpace=wrap;html=1;" vertex="1" parent="1">
          <mxGeometry x="500" y="864" width="290" height="70" as="geometry">
            <mxRectangle x="-60" y="240" width="100" height="30" as="alternateBounds" />
          </mxGeometry>
        </mxCell>
        <mxCell id="NQ_tfFXzwYJ-sqFzQedk-4" value="&lt;div&gt;币种全仓权益 * 币种USDT价格 * 币种折算率&lt;/div&gt;" style="text;strokeColor=none;fillColor=none;align=left;verticalAlign=middle;spacingLeft=4;spacingRight=4;overflow=hidden;points=[[0,0.5],[1,0.5]];portConstraint=eastwest;rotatable=0;whiteSpace=wrap;html=1;" vertex="1" parent="NQ_tfFXzwYJ-sqFzQedk-3">
          <mxGeometry y="30" width="290" height="40" as="geometry" />
        </mxCell>
        <mxCell id="NQ_tfFXzwYJ-sqFzQedk-5" value="&lt;span style=&quot;text-align: left;&quot;&gt;（单）占用保证金&amp;nbsp;&lt;/span&gt;&lt;span style=&quot;font-family: &amp;quot;JetBrains Mono&amp;quot;, monospace; font-size: 9pt; background-color: rgb(255, 255, 255); color: rgb(8, 8, 8);&quot;&gt;lockedMargin&lt;/span&gt;" style="swimlane;fontStyle=0;childLayout=stackLayout;horizontal=1;startSize=30;horizontalStack=0;resizeParent=1;resizeParentMax=0;resizeLast=0;collapsible=1;marginBottom=0;whiteSpace=wrap;html=1;" vertex="1" parent="1">
          <mxGeometry x="900" y="664" width="300" height="90" as="geometry" />
        </mxCell>
        <mxCell id="NQ_tfFXzwYJ-sqFzQedk-6" value="&lt;div&gt;全仓挂单占用 + 全仓持仓占用 + 逐仓挂单占用 + 借款占用 + 现货挂单交易损失 + 现货挂单预估手续费&lt;/div&gt;" style="text;strokeColor=none;fillColor=none;align=left;verticalAlign=middle;spacingLeft=4;spacingRight=4;overflow=hidden;points=[[0,0.5],[1,0.5]];portConstraint=eastwest;rotatable=0;whiteSpace=wrap;html=1;" vertex="1" parent="NQ_tfFXzwYJ-sqFzQedk-5">
          <mxGeometry y="30" width="300" height="60" as="geometry" />
        </mxCell>
        <mxCell id="NQ_tfFXzwYJ-sqFzQedk-7" value="&lt;span style=&quot;text-align: left;&quot;&gt;跨资产合约预留保证金&amp;nbsp;&lt;/span&gt;ReservedMarginForPerp" style="swimlane;fontStyle=0;childLayout=stackLayout;horizontal=1;startSize=30;horizontalStack=0;resizeParent=1;resizeParentMax=0;resizeLast=0;collapsible=1;marginBottom=0;whiteSpace=wrap;html=1;" vertex="1" parent="1">
          <mxGeometry x="1350" y="864" width="760" height="140" as="geometry" />
        </mxCell>
        <mxCell id="NQ_tfFXzwYJ-sqFzQedk-8" value="&lt;div&gt;Sum【所有币种的跨资产担保保证金 * 币种USDT价格】* 0.1 +&amp;nbsp;&lt;/div&gt;&lt;div&gt;Max（0，Sum【所有币种的全仓可用权益 * 币种USDT价格 * 币种折算率】- Max（0，结算币种的全仓可用权益 * 币种USDT价格））* 0.1&lt;br&gt;&lt;/div&gt;" style="text;strokeColor=none;fillColor=none;align=left;verticalAlign=middle;spacingLeft=4;spacingRight=4;overflow=hidden;points=[[0,0.5],[1,0.5]];portConstraint=eastwest;rotatable=0;whiteSpace=wrap;html=1;" vertex="1" parent="NQ_tfFXzwYJ-sqFzQedk-7">
          <mxGeometry y="30" width="760" height="70" as="geometry" />
        </mxCell>
        <mxCell id="NQ_tfFXzwYJ-sqFzQedk-9" value="&lt;div&gt;只有正数需要乘以系数&lt;/div&gt;" style="text;strokeColor=none;fillColor=none;align=left;verticalAlign=middle;spacingLeft=4;spacingRight=4;overflow=hidden;points=[[0,0.5],[1,0.5]];portConstraint=eastwest;rotatable=0;whiteSpace=wrap;html=1;" vertex="1" parent="NQ_tfFXzwYJ-sqFzQedk-7">
          <mxGeometry y="100" width="760" height="40" as="geometry" />
        </mxCell>
        <mxCell id="NQ_tfFXzwYJ-sqFzQedk-10" value="&lt;span style=&quot;color: rgb(0, 0, 0); font-family: Helvetica; font-size: 12px; font-style: normal; font-variant-ligatures: normal; font-variant-caps: normal; font-weight: 400; letter-spacing: normal; orphans: 2; text-align: left; text-indent: 0px; text-transform: none; widows: 2; word-spacing: 0px; -webkit-text-stroke-width: 0px; white-space: normal; background-color: rgb(251, 251, 251); text-decoration-thickness: initial; text-decoration-style: initial; text-decoration-color: initial; display: inline !important; float: none;&quot;&gt;全仓挂单占用&lt;/span&gt;" style="rounded=1;whiteSpace=wrap;html=1;" vertex="1" parent="1">
          <mxGeometry x="820" y="40" width="160" height="60" as="geometry" />
        </mxCell>
        <mxCell id="NQ_tfFXzwYJ-sqFzQedk-11" value="&lt;span style=&quot;color: rgb(0, 0, 0); font-family: Helvetica; font-size: 12px; font-style: normal; font-variant-ligatures: normal; font-variant-caps: normal; font-weight: 400; letter-spacing: normal; orphans: 2; text-align: left; text-indent: 0px; text-transform: none; widows: 2; word-spacing: 0px; -webkit-text-stroke-width: 0px; white-space: normal; background-color: rgb(251, 251, 251); text-decoration-thickness: initial; text-decoration-style: initial; text-decoration-color: initial; display: inline !important; float: none;&quot;&gt;全仓持仓占用&lt;/span&gt;" style="rounded=1;whiteSpace=wrap;html=1;" vertex="1" parent="1">
          <mxGeometry x="820" y="90" width="160" height="60" as="geometry" />
        </mxCell>
        <mxCell id="NQ_tfFXzwYJ-sqFzQedk-12" value="&lt;div&gt;&lt;span style=&quot;text-align: left; background-color: initial;&quot;&gt;逐仓挂单占用&lt;/span&gt;&lt;br&gt;&lt;/div&gt;" style="rounded=1;whiteSpace=wrap;html=1;" vertex="1" parent="1">
          <mxGeometry x="820" y="140" width="160" height="60" as="geometry" />
        </mxCell>
        <mxCell id="NQ_tfFXzwYJ-sqFzQedk-13" value="&lt;div&gt;&lt;span style=&quot;text-align: left;&quot;&gt;借款占用&lt;/span&gt;&lt;br&gt;&lt;/div&gt;" style="rounded=1;whiteSpace=wrap;html=1;" vertex="1" parent="1">
          <mxGeometry x="990" y="40" width="160" height="60" as="geometry" />
        </mxCell>
        <mxCell id="NQ_tfFXzwYJ-sqFzQedk-14" value="&lt;div&gt;&lt;span style=&quot;text-align: left;&quot;&gt;现货挂单交易损失&lt;/span&gt;&lt;br&gt;&lt;/div&gt;" style="rounded=1;whiteSpace=wrap;html=1;" vertex="1" parent="1">
          <mxGeometry x="1160" y="40" width="160" height="60" as="geometry" />
        </mxCell>
        <mxCell id="NQ_tfFXzwYJ-sqFzQedk-15" value="&lt;div&gt;&lt;span style=&quot;text-align: left;&quot;&gt;现货挂单预估手续费&lt;/span&gt;&lt;br&gt;&lt;/div&gt;" style="rounded=1;whiteSpace=wrap;html=1;" vertex="1" parent="1">
          <mxGeometry x="1160" y="110" width="160" height="60" as="geometry" />
        </mxCell>
        <mxCell id="NQ_tfFXzwYJ-sqFzQedk-16" value="&lt;span style=&quot;text-align: left;&quot;&gt;权益 equity&lt;/span&gt;" style="swimlane;fontStyle=0;childLayout=stackLayout;horizontal=1;startSize=30;horizontalStack=0;resizeParent=1;resizeParentMax=0;resizeLast=0;collapsible=1;marginBottom=0;whiteSpace=wrap;html=1;" vertex="1" parent="1">
          <mxGeometry x="260" y="434" width="270" height="90" as="geometry" />
        </mxCell>
        <mxCell id="NQ_tfFXzwYJ-sqFzQedk-17" value="&lt;span id=&quot;docs-internal-guid-ebde03c9-7fff-1dc7-ac11-59d686706613&quot;&gt;&lt;span style=&quot;font-size: 11pt; font-family: Arial, sans-serif; background-color: transparent; font-variant-numeric: normal; font-variant-east-asian: normal; font-variant-alternates: normal; font-variant-position: normal; vertical-align: baseline; white-space-collapse: preserve;&quot;&gt;钱包余额 + 全仓未平仓盈亏 + 逐仓未平仓盈亏 - 真实负债 - 未还利息&lt;/span&gt;&lt;/span&gt;" style="text;strokeColor=none;fillColor=none;align=left;verticalAlign=middle;spacingLeft=4;spacingRight=4;overflow=hidden;points=[[0,0.5],[1,0.5]];portConstraint=eastwest;rotatable=0;whiteSpace=wrap;html=1;" vertex="1" parent="NQ_tfFXzwYJ-sqFzQedk-16">
          <mxGeometry y="30" width="270" height="60" as="geometry" />
        </mxCell>
        <mxCell id="NQ_tfFXzwYJ-sqFzQedk-18" value="&lt;span style=&quot;text-align: left;&quot;&gt;逐仓保证金&lt;/span&gt;" style="swimlane;fontStyle=0;childLayout=stackLayout;horizontal=1;startSize=30;horizontalStack=0;resizeParent=1;resizeParentMax=0;resizeLast=0;collapsible=1;marginBottom=0;whiteSpace=wrap;html=1;" vertex="1" parent="1">
          <mxGeometry x="610" y="50" width="140" height="60" as="geometry" />
        </mxCell>
        <mxCell id="NQ_tfFXzwYJ-sqFzQedk-19" value="-" style="text;strokeColor=none;fillColor=none;align=left;verticalAlign=middle;spacingLeft=4;spacingRight=4;overflow=hidden;points=[[0,0.5],[1,0.5]];portConstraint=eastwest;rotatable=0;whiteSpace=wrap;html=1;" vertex="1" parent="NQ_tfFXzwYJ-sqFzQedk-18">
          <mxGeometry y="30" width="140" height="30" as="geometry" />
        </mxCell>
        <mxCell id="NQ_tfFXzwYJ-sqFzQedk-20" value="&lt;span style=&quot;text-align: left;&quot;&gt;逐仓未平仓盈亏&lt;/span&gt;" style="swimlane;fontStyle=0;childLayout=stackLayout;horizontal=1;startSize=30;horizontalStack=0;resizeParent=1;resizeParentMax=0;resizeLast=0;collapsible=1;marginBottom=0;whiteSpace=wrap;html=1;" vertex="1" parent="1">
          <mxGeometry x="610" y="130" width="140" height="60" as="geometry" />
        </mxCell>
        <mxCell id="NQ_tfFXzwYJ-sqFzQedk-21" value="-" style="text;strokeColor=none;fillColor=none;align=left;verticalAlign=middle;spacingLeft=4;spacingRight=4;overflow=hidden;points=[[0,0.5],[1,0.5]];portConstraint=eastwest;rotatable=0;whiteSpace=wrap;html=1;" vertex="1" parent="NQ_tfFXzwYJ-sqFzQedk-20">
          <mxGeometry y="30" width="140" height="30" as="geometry" />
        </mxCell>
        <mxCell id="NQ_tfFXzwYJ-sqFzQedk-22" value="&lt;div&gt;&lt;span style=&quot;text-align: left;&quot;&gt;真实负债&lt;br&gt;&lt;/span&gt;&lt;span id=&quot;docs-internal-guid-ca987349-7fff-c79b-9d45-a30c82a8ef7f&quot;&gt;&lt;span style=&quot;font-size: 11pt; font-family: Arial, sans-serif; background-color: transparent; font-variant-numeric: normal; font-variant-east-asian: normal; font-variant-alternates: normal; font-variant-position: normal; vertical-align: baseline; white-space-collapse: preserve;&quot;&gt;RealDebt&lt;/span&gt;&lt;/span&gt;&lt;br&gt;&lt;/div&gt;" style="rounded=1;whiteSpace=wrap;html=1;" vertex="1" parent="1">
          <mxGeometry x="380" y="50" width="160" height="60" as="geometry" />
        </mxCell>
        <mxCell id="NQ_tfFXzwYJ-sqFzQedk-23" value="&lt;div&gt;&lt;span style=&quot;text-align: left;&quot;&gt;未还利息&lt;/span&gt;&lt;br&gt;&lt;/div&gt;" style="rounded=1;whiteSpace=wrap;html=1;" vertex="1" parent="1">
          <mxGeometry x="380" y="120" width="160" height="60" as="geometry" />
        </mxCell>
        <mxCell id="NQ_tfFXzwYJ-sqFzQedk-24" value="&lt;span style=&quot;text-align: left;&quot;&gt;全仓保证金&lt;/span&gt;" style="swimlane;fontStyle=0;childLayout=stackLayout;horizontal=1;startSize=30;horizontalStack=0;resizeParent=1;resizeParentMax=0;resizeLast=0;collapsible=1;marginBottom=0;whiteSpace=wrap;html=1;" vertex="1" parent="1">
          <mxGeometry x="610" y="220" width="140" height="60" as="geometry" />
        </mxCell>
        <mxCell id="NQ_tfFXzwYJ-sqFzQedk-25" value="-" style="text;strokeColor=none;fillColor=none;align=left;verticalAlign=middle;spacingLeft=4;spacingRight=4;overflow=hidden;points=[[0,0.5],[1,0.5]];portConstraint=eastwest;rotatable=0;whiteSpace=wrap;html=1;" vertex="1" parent="NQ_tfFXzwYJ-sqFzQedk-24">
          <mxGeometry y="30" width="140" height="30" as="geometry" />
        </mxCell>
        <mxCell id="NQ_tfFXzwYJ-sqFzQedk-26" value="&lt;span style=&quot;text-align: left;&quot;&gt;全仓未平仓盈亏&lt;/span&gt;" style="swimlane;fontStyle=0;childLayout=stackLayout;horizontal=1;startSize=30;horizontalStack=0;resizeParent=1;resizeParentMax=0;resizeLast=0;collapsible=1;marginBottom=0;whiteSpace=wrap;html=1;" vertex="1" parent="1">
          <mxGeometry x="610" y="300" width="140" height="60" as="geometry" />
        </mxCell>
        <mxCell id="NQ_tfFXzwYJ-sqFzQedk-27" value="-" style="text;strokeColor=none;fillColor=none;align=left;verticalAlign=middle;spacingLeft=4;spacingRight=4;overflow=hidden;points=[[0,0.5],[1,0.5]];portConstraint=eastwest;rotatable=0;whiteSpace=wrap;html=1;" vertex="1" parent="NQ_tfFXzwYJ-sqFzQedk-26">
          <mxGeometry y="30" width="140" height="30" as="geometry" />
        </mxCell>
        <mxCell id="NQ_tfFXzwYJ-sqFzQedk-28" value="&lt;div&gt;&lt;span style=&quot;text-align: left;&quot;&gt;钱包余额&lt;br&gt;&lt;/span&gt;&lt;span id=&quot;docs-internal-guid-9bbff485-7fff-7f70-41a6-ff45d0217319&quot;&gt;&lt;span style=&quot;font-size: 11pt; font-family: Arial, sans-serif; background-color: transparent; font-variant-numeric: normal; font-variant-east-asian: normal; font-variant-alternates: normal; font-variant-position: normal; vertical-align: baseline; white-space-collapse: preserve;&quot;&gt;WalletBalance&lt;/span&gt;&lt;/span&gt;&lt;br&gt;&lt;/div&gt;" style="rounded=1;whiteSpace=wrap;html=1;" vertex="1" parent="1">
          <mxGeometry x="40" y="274" width="160" height="60" as="geometry" />
        </mxCell>
        <mxCell id="NQ_tfFXzwYJ-sqFzQedk-29" value="&lt;span style=&quot;text-align: left;&quot;&gt;跨资产担保保证金&amp;nbsp;&lt;/span&gt;&lt;span style=&quot;font-family: &amp;quot;JetBrains Mono&amp;quot;, monospace; font-size: 9pt; background-color: rgb(255, 255, 255); color: rgb(8, 8, 8);&quot;&gt;LockedMarginBackedByOtherAssets&lt;/span&gt;" style="swimlane;fontStyle=0;childLayout=stackLayout;horizontal=1;startSize=30;horizontalStack=0;resizeParent=1;resizeParentMax=0;resizeLast=0;collapsible=1;marginBottom=0;whiteSpace=wrap;html=1;" vertex="1" parent="1">
          <mxGeometry x="1400" y="274" width="450" height="110" as="geometry" />
        </mxCell>
        <mxCell id="NQ_tfFXzwYJ-sqFzQedk-30" value="Max（全仓挂单占用 + 逐仓保证金 + 逐仓挂单占用 - 钱包可用余额 - 全仓浮盈，0）" style="text;strokeColor=none;fillColor=none;align=left;verticalAlign=middle;spacingLeft=4;spacingRight=4;overflow=hidden;points=[[0,0.5],[1,0.5]];portConstraint=eastwest;rotatable=0;whiteSpace=wrap;html=1;" vertex="1" parent="NQ_tfFXzwYJ-sqFzQedk-29">
          <mxGeometry y="30" width="450" height="80" as="geometry" />
        </mxCell>
        <mxCell id="NQ_tfFXzwYJ-sqFzQedk-31" value="&lt;span style=&quot;text-align: left;&quot;&gt;全仓可用权益&amp;nbsp;&lt;/span&gt;&lt;span style=&quot;font-family: &amp;quot;JetBrains Mono&amp;quot;, monospace; font-size: 9pt; background-color: rgb(255, 255, 255); color: rgb(8, 8, 8);&quot;&gt;AvailableEquity&lt;/span&gt;" style="swimlane;fontStyle=0;childLayout=stackLayout;horizontal=1;startSize=30;horizontalStack=0;resizeParent=1;resizeParentMax=0;resizeLast=0;collapsible=1;marginBottom=0;whiteSpace=wrap;html=1;" vertex="1" parent="1">
          <mxGeometry x="1400" y="594" width="240" height="60" as="geometry" />
        </mxCell>
        <mxCell id="NQ_tfFXzwYJ-sqFzQedk-32" value="全仓权益 - 余额占用 - 保证金占用" style="text;strokeColor=none;fillColor=none;align=left;verticalAlign=middle;spacingLeft=4;spacingRight=4;overflow=hidden;points=[[0,0.5],[1,0.5]];portConstraint=eastwest;rotatable=0;whiteSpace=wrap;html=1;" vertex="1" parent="NQ_tfFXzwYJ-sqFzQedk-31">
          <mxGeometry y="30" width="240" height="30" as="geometry" />
        </mxCell>
        <mxCell id="NQ_tfFXzwYJ-sqFzQedk-33" value="&lt;span style=&quot;text-align: left;&quot;&gt;全仓权益&amp;nbsp;&lt;/span&gt;&lt;span id=&quot;docs-internal-guid-6efe46fb-7fff-cfc1-2f91-9d7f167bdc82&quot;&gt;&lt;span style=&quot;font-size: 11pt; font-family: Arial, sans-serif; background-color: transparent; font-variant-numeric: normal; font-variant-east-asian: normal; font-variant-alternates: normal; font-variant-position: normal; vertical-align: baseline; white-space-collapse: preserve;&quot;&gt;SharedEquity&lt;/span&gt;&lt;/span&gt;" style="swimlane;fontStyle=0;childLayout=stackLayout;horizontal=1;startSize=30;horizontalStack=0;resizeParent=1;resizeParentMax=0;resizeLast=0;collapsible=1;marginBottom=0;whiteSpace=wrap;html=1;" vertex="1" parent="1">
          <mxGeometry x="819" y="434" width="310" height="120" as="geometry" />
        </mxCell>
        <mxCell id="NQ_tfFXzwYJ-sqFzQedk-34" value="&lt;span id=&quot;docs-internal-guid-8330c4ed-7fff-1668-7055-0fd71e99c6b8&quot;&gt;&lt;span style=&quot;font-family: Arial, sans-serif; background-color: transparent; font-variant-numeric: normal; font-variant-east-asian: normal; font-variant-alternates: normal; font-variant-position: normal; vertical-align: baseline; white-space-collapse: preserve;&quot;&gt;&lt;font style=&quot;font-size: 12px;&quot;&gt;钱包余额 + 全仓未平仓盈亏 - 逐仓保证金 - 真实负债 - 未还利息&lt;br/&gt;&lt;/font&gt;&lt;/span&gt;&lt;/span&gt;" style="text;strokeColor=none;fillColor=none;align=left;verticalAlign=middle;spacingLeft=4;spacingRight=4;overflow=hidden;points=[[0,0.5],[1,0.5]];portConstraint=eastwest;rotatable=0;whiteSpace=wrap;html=1;" vertex="1" parent="NQ_tfFXzwYJ-sqFzQedk-33">
          <mxGeometry y="30" width="310" height="50" as="geometry" />
        </mxCell>
        <mxCell id="NQ_tfFXzwYJ-sqFzQedk-35" value="&lt;span style=&quot;font-family: Arial, sans-serif; white-space-collapse: preserve;&quot;&gt;权益 - 逐仓保证金 - 逐仓未平仓盈亏&lt;/span&gt;" style="text;strokeColor=none;fillColor=none;align=left;verticalAlign=middle;spacingLeft=4;spacingRight=4;overflow=hidden;points=[[0,0.5],[1,0.5]];portConstraint=eastwest;rotatable=0;whiteSpace=wrap;html=1;fontStyle=0" vertex="1" parent="NQ_tfFXzwYJ-sqFzQedk-33">
          <mxGeometry y="80" width="310" height="40" as="geometry" />
        </mxCell>
        <mxCell id="NQ_tfFXzwYJ-sqFzQedk-36" value="&lt;span style=&quot;text-align: left;&quot;&gt;余额占用&amp;nbsp;&lt;/span&gt;&lt;span id=&quot;docs-internal-guid-4d6ba8cf-7fff-fb5d-45ef-94e92bc38878&quot;&gt;&lt;span style=&quot;font-size: 11pt; font-family: Arial, sans-serif; background-color: transparent; font-variant-numeric: normal; font-variant-east-asian: normal; font-variant-alternates: normal; font-variant-position: normal; vertical-align: baseline; white-space-collapse: preserve;&quot;&gt;LockedBalance&lt;/span&gt;&lt;/span&gt;" style="swimlane;fontStyle=0;childLayout=stackLayout;horizontal=1;startSize=30;horizontalStack=0;resizeParent=1;resizeParentMax=0;resizeLast=0;collapsible=1;marginBottom=0;whiteSpace=wrap;html=1;" vertex="1" parent="1">
          <mxGeometry x="1370" y="40" width="210" height="60" as="geometry" />
        </mxCell>
        <mxCell id="NQ_tfFXzwYJ-sqFzQedk-37" value="现货挂单占用" style="text;strokeColor=none;fillColor=none;align=left;verticalAlign=middle;spacingLeft=4;spacingRight=4;overflow=hidden;points=[[0,0.5],[1,0.5]];portConstraint=eastwest;rotatable=0;whiteSpace=wrap;html=1;" vertex="1" parent="NQ_tfFXzwYJ-sqFzQedk-36">
          <mxGeometry y="30" width="210" height="30" as="geometry" />
        </mxCell>
        <mxCell id="NQ_tfFXzwYJ-sqFzQedk-38" value="&lt;div style=&quot;text-align: left;&quot;&gt;钱包可用余额&amp;nbsp;&lt;span style=&quot;background-color: rgb(255, 255, 255); color: rgb(8, 8, 8); font-family: &amp;quot;JetBrains Mono&amp;quot;, monospace; font-size: 9pt; text-align: center;&quot;&gt;AvailableBalance&lt;/span&gt;&lt;/div&gt;" style="swimlane;fontStyle=0;childLayout=stackLayout;horizontal=1;startSize=30;horizontalStack=0;resizeParent=1;resizeParentMax=0;resizeLast=0;collapsible=1;marginBottom=0;whiteSpace=wrap;html=1;" vertex="1" parent="1">
          <mxGeometry x="260" y="274" width="270" height="80" as="geometry" />
        </mxCell>
        <mxCell id="NQ_tfFXzwYJ-sqFzQedk-39" value="&lt;span id=&quot;docs-internal-guid-ebde03c9-7fff-1dc7-ac11-59d686706613&quot;&gt;&lt;span style=&quot;font-size: 11pt; font-family: Arial, sans-serif; background-color: transparent; font-variant-numeric: normal; font-variant-east-asian: normal; font-variant-alternates: normal; font-variant-position: normal; vertical-align: baseline; white-space-collapse: preserve;&quot;&gt;Max（0，钱包余额 - 余额占用）&lt;/span&gt;&lt;/span&gt;" style="text;strokeColor=none;fillColor=none;align=left;verticalAlign=middle;spacingLeft=4;spacingRight=4;overflow=hidden;points=[[0,0.5],[1,0.5]];portConstraint=eastwest;rotatable=0;whiteSpace=wrap;html=1;" vertex="1" parent="NQ_tfFXzwYJ-sqFzQedk-38">
          <mxGeometry y="30" width="270" height="50" as="geometry" />
        </mxCell>
        <mxCell id="NQ_tfFXzwYJ-sqFzQedk-40" value="&lt;span style=&quot;text-align: left;&quot;&gt;（总）占用保证金&amp;nbsp;&lt;/span&gt;&lt;span style=&quot;font-family: &amp;quot;JetBrains Mono&amp;quot;, monospace; font-size: 9pt; background-color: rgb(255, 255, 255); color: rgb(8, 8, 8);&quot;&gt;lockedMargin&lt;/span&gt;" style="swimlane;fontStyle=0;childLayout=stackLayout;horizontal=1;startSize=30;horizontalStack=0;resizeParent=1;resizeParentMax=0;resizeLast=0;collapsible=1;marginBottom=0;whiteSpace=wrap;html=1;" vertex="1" parent="1">
          <mxGeometry x="900" y="864" width="300" height="90" as="geometry" />
        </mxCell>
        <mxCell id="NQ_tfFXzwYJ-sqFzQedk-41" value="币种的占用保证金 * 币种的USDT价格" style="text;strokeColor=none;fillColor=none;align=left;verticalAlign=middle;spacingLeft=4;spacingRight=4;overflow=hidden;points=[[0,0.5],[1,0.5]];portConstraint=eastwest;rotatable=0;whiteSpace=wrap;html=1;" vertex="1" parent="NQ_tfFXzwYJ-sqFzQedk-40">
          <mxGeometry y="30" width="300" height="60" as="geometry" />
        </mxCell>
      </root>
    </mxGraphModel>
  </diagram>
  <diagram id="zstMiS1EAz2A8k4Kw_Ot" name="kline-logic">
    <mxGraphModel dx="786" dy="1160" grid="1" gridSize="10" guides="1" tooltips="1" connect="1" arrows="1" fold="1" page="1" pageScale="1" pageWidth="827" pageHeight="1169" math="0" shadow="0">
      <root>
        <mxCell id="0" />
        <mxCell id="1" parent="0" />
        <mxCell id="owOjDRVdFxvWqD3xLgDO-1" value="" style="endArrow=none;html=1;rounded=0;" edge="1" parent="1">
          <mxGeometry width="50" height="50" relative="1" as="geometry">
            <mxPoint x="170" y="400" as="sourcePoint" />
            <mxPoint x="170" y="80" as="targetPoint" />
          </mxGeometry>
        </mxCell>
        <mxCell id="owOjDRVdFxvWqD3xLgDO-2" value="" style="endArrow=none;html=1;rounded=0;" edge="1" parent="1">
          <mxGeometry width="50" height="50" relative="1" as="geometry">
            <mxPoint x="490" y="400" as="sourcePoint" />
            <mxPoint x="490" y="80" as="targetPoint" />
          </mxGeometry>
        </mxCell>
        <mxCell id="owOjDRVdFxvWqD3xLgDO-3" value="" style="endArrow=none;dashed=1;html=1;rounded=0;" edge="1" parent="1">
          <mxGeometry width="50" height="50" relative="1" as="geometry">
            <mxPoint x="330" y="360" as="sourcePoint" />
            <mxPoint x="330" y="120" as="targetPoint" />
          </mxGeometry>
        </mxCell>
        <mxCell id="owOjDRVdFxvWqD3xLgDO-4" value="TradingView" style="text;html=1;strokeColor=none;fillColor=none;align=center;verticalAlign=middle;whiteSpace=wrap;rounded=0;" vertex="1" parent="1">
          <mxGeometry x="40" y="40" width="100" height="40" as="geometry" />
        </mxCell>
        <mxCell id="owOjDRVdFxvWqD3xLgDO-5" value="前端" style="text;html=1;strokeColor=none;fillColor=none;align=center;verticalAlign=middle;whiteSpace=wrap;rounded=0;" vertex="1" parent="1">
          <mxGeometry x="280" y="40" width="100" height="40" as="geometry" />
        </mxCell>
        <mxCell id="owOjDRVdFxvWqD3xLgDO-6" value="Engine" style="text;html=1;strokeColor=none;fillColor=none;align=center;verticalAlign=middle;whiteSpace=wrap;rounded=0;" vertex="1" parent="1">
          <mxGeometry x="520" y="40" width="100" height="40" as="geometry" />
        </mxCell>
        <mxCell id="owOjDRVdFxvWqD3xLgDO-7" value="前台" style="text;html=1;strokeColor=none;fillColor=none;align=center;verticalAlign=middle;whiteSpace=wrap;rounded=0;fontColor=#999999;" vertex="1" parent="1">
          <mxGeometry x="200" y="80" width="100" height="40" as="geometry" />
        </mxCell>
        <mxCell id="owOjDRVdFxvWqD3xLgDO-8" value="Web Worker" style="text;html=1;strokeColor=none;fillColor=none;align=center;verticalAlign=middle;whiteSpace=wrap;rounded=0;fontColor=#999999;" vertex="1" parent="1">
          <mxGeometry x="360" y="80" width="100" height="40" as="geometry" />
        </mxCell>
        <mxCell id="owOjDRVdFxvWqD3xLgDO-9" value="widget" style="text;html=1;strokeColor=none;fillColor=none;align=center;verticalAlign=middle;whiteSpace=wrap;rounded=0;" vertex="1" parent="1">
          <mxGeometry x="40" y="140" width="100" height="40" as="geometry" />
        </mxCell>
        <mxCell id="owOjDRVdFxvWqD3xLgDO-10" value="DataFeed" style="text;html=1;strokeColor=none;fillColor=none;align=center;verticalAlign=middle;whiteSpace=wrap;rounded=0;" vertex="1" parent="1">
          <mxGeometry x="200" y="140" width="100" height="40" as="geometry" />
        </mxCell>
        <mxCell id="owOjDRVdFxvWqD3xLgDO-11" value="DataService" style="text;html=1;strokeColor=none;fillColor=none;align=center;verticalAlign=middle;whiteSpace=wrap;rounded=0;" vertex="1" parent="1">
          <mxGeometry x="200" y="220" width="100" height="40" as="geometry" />
        </mxCell>
        <mxCell id="owOjDRVdFxvWqD3xLgDO-12" value="KlineChannel" style="text;html=1;strokeColor=none;fillColor=none;align=center;verticalAlign=middle;whiteSpace=wrap;rounded=0;" vertex="1" parent="1">
          <mxGeometry x="200" y="300" width="100" height="40" as="geometry" />
        </mxCell>
        <mxCell id="owOjDRVdFxvWqD3xLgDO-13" value="subscription" style="text;html=1;strokeColor=none;fillColor=none;align=center;verticalAlign=middle;whiteSpace=wrap;rounded=0;" vertex="1" parent="1">
          <mxGeometry x="360" y="140" width="100" height="40" as="geometry" />
        </mxCell>
        <mxCell id="owOjDRVdFxvWqD3xLgDO-14" value="DataService" style="text;html=1;strokeColor=none;fillColor=none;align=center;verticalAlign=middle;whiteSpace=wrap;rounded=0;" vertex="1" parent="1">
          <mxGeometry x="360" y="220" width="100" height="40" as="geometry" />
        </mxCell>
        <mxCell id="owOjDRVdFxvWqD3xLgDO-15" value="KlineChannel" style="text;html=1;strokeColor=none;fillColor=none;align=center;verticalAlign=middle;whiteSpace=wrap;rounded=0;" vertex="1" parent="1">
          <mxGeometry x="360" y="300" width="100" height="40" as="geometry" />
        </mxCell>
        <mxCell id="owOjDRVdFxvWqD3xLgDO-16" value="GateWay" style="text;html=1;align=center;verticalAlign=middle;resizable=0;points=[];autosize=1;strokeColor=none;fillColor=none;" vertex="1" parent="1">
          <mxGeometry x="535" y="305" width="70" height="30" as="geometry" />
        </mxCell>
        <mxCell id="owOjDRVdFxvWqD3xLgDO-17" value="" style="endArrow=classic;html=1;rounded=0;entryX=0;entryY=0.5;entryDx=0;entryDy=0;" edge="1" parent="1" target="owOjDRVdFxvWqD3xLgDO-10">
          <mxGeometry width="50" height="50" relative="1" as="geometry">
            <mxPoint x="140" y="160" as="sourcePoint" />
            <mxPoint x="190" y="110" as="targetPoint" />
          </mxGeometry>
        </mxCell>
        <mxCell id="owOjDRVdFxvWqD3xLgDO-18" value="" style="endArrow=classic;html=1;rounded=0;entryX=0;entryY=1;entryDx=0;entryDy=0;exitX=1;exitY=0;exitDx=0;exitDy=0;" edge="1" parent="1" source="owOjDRVdFxvWqD3xLgDO-12" target="owOjDRVdFxvWqD3xLgDO-13">
          <mxGeometry width="50" height="50" relative="1" as="geometry">
            <mxPoint x="310" y="340" as="sourcePoint" />
            <mxPoint x="370" y="340" as="targetPoint" />
          </mxGeometry>
        </mxCell>
        <mxCell id="owOjDRVdFxvWqD3xLgDO-19" value="" style="endArrow=classic;html=1;rounded=0;entryX=0.5;entryY=0;entryDx=0;entryDy=0;exitX=0.5;exitY=1;exitDx=0;exitDy=0;" edge="1" parent="1" source="owOjDRVdFxvWqD3xLgDO-10" target="owOjDRVdFxvWqD3xLgDO-11">
          <mxGeometry width="50" height="50" relative="1" as="geometry">
            <mxPoint x="150" y="170" as="sourcePoint" />
            <mxPoint x="210" y="170" as="targetPoint" />
          </mxGeometry>
        </mxCell>
        <mxCell id="owOjDRVdFxvWqD3xLgDO-20" value="" style="endArrow=classic;html=1;rounded=0;entryX=0.5;entryY=0;entryDx=0;entryDy=0;exitX=0.5;exitY=1;exitDx=0;exitDy=0;" edge="1" parent="1">
          <mxGeometry width="50" height="50" relative="1" as="geometry">
            <mxPoint x="249.5" y="265" as="sourcePoint" />
            <mxPoint x="249.5" y="305" as="targetPoint" />
          </mxGeometry>
        </mxCell>
        <mxCell id="owOjDRVdFxvWqD3xLgDO-21" value="" style="endArrow=classic;html=1;rounded=0;entryX=0.5;entryY=0;entryDx=0;entryDy=0;exitX=0.5;exitY=1;exitDx=0;exitDy=0;" edge="1" parent="1">
          <mxGeometry width="50" height="50" relative="1" as="geometry">
            <mxPoint x="409.5" y="180" as="sourcePoint" />
            <mxPoint x="409.5" y="220" as="targetPoint" />
          </mxGeometry>
        </mxCell>
        <mxCell id="owOjDRVdFxvWqD3xLgDO-22" value="" style="endArrow=classic;html=1;rounded=0;entryX=0.5;entryY=0;entryDx=0;entryDy=0;exitX=0.5;exitY=1;exitDx=0;exitDy=0;" edge="1" parent="1">
          <mxGeometry width="50" height="50" relative="1" as="geometry">
            <mxPoint x="409.5" y="265" as="sourcePoint" />
            <mxPoint x="409.5" y="305" as="targetPoint" />
          </mxGeometry>
        </mxCell>
        <mxCell id="owOjDRVdFxvWqD3xLgDO-23" value="" style="endArrow=classic;html=1;rounded=0;entryX=0;entryY=0.15;entryDx=0;entryDy=0;exitX=1;exitY=0.25;exitDx=0;exitDy=0;entryPerimeter=0;" edge="1" parent="1" source="owOjDRVdFxvWqD3xLgDO-15" target="owOjDRVdFxvWqD3xLgDO-16">
          <mxGeometry width="50" height="50" relative="1" as="geometry">
            <mxPoint x="460" y="320" as="sourcePoint" />
            <mxPoint x="520" y="160" as="targetPoint" />
          </mxGeometry>
        </mxCell>
        <mxCell id="owOjDRVdFxvWqD3xLgDO-24" value="" style="endArrow=classic;html=1;rounded=0;entryX=1;entryY=0.75;entryDx=0;entryDy=0;strokeColor=#00CC00;" edge="1" parent="1" target="owOjDRVdFxvWqD3xLgDO-15">
          <mxGeometry width="50" height="50" relative="1" as="geometry">
            <mxPoint x="530" y="330" as="sourcePoint" />
            <mxPoint x="545" y="320" as="targetPoint" />
          </mxGeometry>
        </mxCell>
        <mxCell id="owOjDRVdFxvWqD3xLgDO-25" value="" style="endArrow=classic;html=1;rounded=0;entryX=1;entryY=0.75;entryDx=0;entryDy=0;strokeColor=#00CC00;" edge="1" parent="1">
          <mxGeometry width="50" height="50" relative="1" as="geometry">
            <mxPoint x="365" y="319.5" as="sourcePoint" />
            <mxPoint x="295" y="319.5" as="targetPoint" />
          </mxGeometry>
        </mxCell>
        <mxCell id="owOjDRVdFxvWqD3xLgDO-26" value="" style="endArrow=classic;html=1;rounded=0;entryX=1;entryY=1;entryDx=0;entryDy=0;strokeColor=#00CC00;" edge="1" parent="1" target="owOjDRVdFxvWqD3xLgDO-9">
          <mxGeometry width="50" height="50" relative="1" as="geometry">
            <mxPoint x="200" y="305" as="sourcePoint" />
            <mxPoint x="130" y="305" as="targetPoint" />
          </mxGeometry>
        </mxCell>
      </root>
    </mxGraphModel>
  </diagram>
  <diagram id="6Axnf0U1rUrEq1HfkiMT" name="socket">
    <mxGraphModel dx="882" dy="620" grid="1" gridSize="10" guides="1" tooltips="1" connect="1" arrows="1" fold="1" page="1" pageScale="1" pageWidth="827" pageHeight="1169" math="0" shadow="0">
      <root>
        <mxCell id="0" />
        <mxCell id="1" parent="0" />
        <mxCell id="ueSuB8wyHMOpmiDH2ztL-1" value="Pool" style="swimlane;html=1;childLayout=stackLayout;startSize=20;rounded=0;shadow=0;labelBackgroundColor=none;strokeWidth=1;fontFamily=Verdana;fontSize=8;align=center;" parent="1" vertex="1">
          <mxGeometry x="40" y="40" width="640" height="750" as="geometry" />
        </mxCell>
        <mxCell id="ueSuB8wyHMOpmiDH2ztL-2" value="Subject" style="swimlane;html=1;startSize=20;" parent="ueSuB8wyHMOpmiDH2ztL-1" vertex="1">
          <mxGeometry y="20" width="160" height="730" as="geometry" />
        </mxCell>
        <mxCell id="ueSuB8wyHMOpmiDH2ztL-3" style="edgeStyle=orthogonalEdgeStyle;rounded=0;orthogonalLoop=1;jettySize=auto;html=1;exitX=0.5;exitY=0;exitDx=0;exitDy=0;entryX=0.5;entryY=1;entryDx=0;entryDy=0;" parent="ueSuB8wyHMOpmiDH2ztL-2" source="ueSuB8wyHMOpmiDH2ztL-4" target="ueSuB8wyHMOpmiDH2ztL-5" edge="1">
          <mxGeometry relative="1" as="geometry" />
        </mxCell>
        <mxCell id="ueSuB8wyHMOpmiDH2ztL-4" value="retryWhen Error&lt;br&gt;(2*1000ms)" style="rounded=1;whiteSpace=wrap;html=1;shadow=0;labelBackgroundColor=none;strokeWidth=1;fontFamily=Verdana;fontSize=8;align=center;" parent="ueSuB8wyHMOpmiDH2ztL-2" vertex="1">
          <mxGeometry x="30" y="240" width="100" height="60" as="geometry" />
        </mxCell>
        <mxCell id="ueSuB8wyHMOpmiDH2ztL-5" value="Start" style="rounded=1;whiteSpace=wrap;html=1;shadow=0;labelBackgroundColor=none;strokeWidth=1;fontFamily=Verdana;fontSize=8;align=center;" parent="ueSuB8wyHMOpmiDH2ztL-2" vertex="1">
          <mxGeometry x="30" y="65" width="100" height="60" as="geometry" />
        </mxCell>
        <mxCell id="ueSuB8wyHMOpmiDH2ztL-6" style="edgeStyle=orthogonalEdgeStyle;rounded=0;orthogonalLoop=1;jettySize=auto;html=1;exitX=0.5;exitY=0;exitDx=0;exitDy=0;entryX=0.5;entryY=1;entryDx=0;entryDy=0;" parent="ueSuB8wyHMOpmiDH2ztL-2" source="ueSuB8wyHMOpmiDH2ztL-8" target="ueSuB8wyHMOpmiDH2ztL-4" edge="1">
          <mxGeometry relative="1" as="geometry" />
        </mxCell>
        <mxCell id="ueSuB8wyHMOpmiDH2ztL-7" value="throw Error" style="edgeLabel;html=1;align=center;verticalAlign=middle;resizable=0;points=[];" parent="ueSuB8wyHMOpmiDH2ztL-6" vertex="1" connectable="0">
          <mxGeometry x="-0.1001" y="1" relative="1" as="geometry">
            <mxPoint as="offset" />
          </mxGeometry>
        </mxCell>
        <mxCell id="ueSuB8wyHMOpmiDH2ztL-8" value="timeout" style="rhombus;whiteSpace=wrap;html=1;rounded=0;shadow=0;labelBackgroundColor=none;strokeWidth=1;fontFamily=Verdana;fontSize=8;align=center;" parent="ueSuB8wyHMOpmiDH2ztL-2" vertex="1">
          <mxGeometry x="40" y="640" width="80" height="60" as="geometry" />
        </mxCell>
        <mxCell id="ueSuB8wyHMOpmiDH2ztL-9" value="Websocket" style="swimlane;html=1;startSize=20;" parent="ueSuB8wyHMOpmiDH2ztL-1" vertex="1">
          <mxGeometry x="160" y="20" width="160" height="730" as="geometry" />
        </mxCell>
        <mxCell id="ueSuB8wyHMOpmiDH2ztL-10" value="create Websocket&lt;br&gt;(Opening)" style="rounded=1;whiteSpace=wrap;html=1;shadow=0;labelBackgroundColor=none;strokeWidth=1;fontFamily=Verdana;fontSize=8;align=center;" parent="ueSuB8wyHMOpmiDH2ztL-9" vertex="1">
          <mxGeometry x="30" y="65" width="100" height="60" as="geometry" />
        </mxCell>
        <mxCell id="ueSuB8wyHMOpmiDH2ztL-11" value="onopen&lt;br&gt;(Opened)" style="rounded=1;whiteSpace=wrap;html=1;shadow=0;labelBackgroundColor=none;strokeWidth=1;fontFamily=Verdana;fontSize=8;align=center;fillColor=#d5e8d4;strokeColor=#82b366;" parent="ueSuB8wyHMOpmiDH2ztL-9" vertex="1">
          <mxGeometry x="30" y="160" width="100" height="60" as="geometry" />
        </mxCell>
        <mxCell id="ueSuB8wyHMOpmiDH2ztL-12" value="onmessage" style="rounded=1;whiteSpace=wrap;html=1;shadow=0;labelBackgroundColor=none;strokeWidth=1;fontFamily=Verdana;fontSize=8;align=center;" parent="ueSuB8wyHMOpmiDH2ztL-9" vertex="1">
          <mxGeometry x="30" y="400" width="100" height="60" as="geometry" />
        </mxCell>
        <mxCell id="ueSuB8wyHMOpmiDH2ztL-13" value="onclose&lt;br&gt;reset socket&lt;br&gt;throw Error" style="rounded=1;whiteSpace=wrap;html=1;shadow=0;labelBackgroundColor=none;strokeWidth=1;fontFamily=Verdana;fontSize=8;align=center;fillColor=#f8cecc;strokeColor=#b85450;" parent="ueSuB8wyHMOpmiDH2ztL-9" vertex="1">
          <mxGeometry x="30" y="320" width="100" height="60" as="geometry" />
        </mxCell>
        <mxCell id="ueSuB8wyHMOpmiDH2ztL-14" value="onerror&lt;br&gt;reset socket&lt;br&gt;throw Error" style="rounded=1;whiteSpace=wrap;html=1;shadow=0;labelBackgroundColor=none;strokeWidth=1;fontFamily=Verdana;fontSize=8;align=center;fillColor=#f8cecc;strokeColor=#b85450;" parent="ueSuB8wyHMOpmiDH2ztL-9" vertex="1">
          <mxGeometry x="30" y="240" width="100" height="60" as="geometry" />
        </mxCell>
        <mxCell id="ueSuB8wyHMOpmiDH2ztL-15" style="edgeStyle=orthogonalEdgeStyle;rounded=1;html=1;labelBackgroundColor=none;startArrow=none;startFill=0;startSize=5;endArrow=classicThin;endFill=1;endSize=5;jettySize=auto;orthogonalLoop=1;strokeWidth=1;fontFamily=Verdana;fontSize=8;exitX=0.5;exitY=1;exitDx=0;exitDy=0;entryX=-0.007;entryY=0.602;entryDx=0;entryDy=0;entryPerimeter=0;" parent="ueSuB8wyHMOpmiDH2ztL-1" source="ueSuB8wyHMOpmiDH2ztL-12" target="ueSuB8wyHMOpmiDH2ztL-19" edge="1">
          <mxGeometry relative="1" as="geometry">
            <mxPoint x="239.66000000000003" y="500" as="sourcePoint" />
            <mxPoint x="280" y="540" as="targetPoint" />
          </mxGeometry>
        </mxCell>
        <mxCell id="ueSuB8wyHMOpmiDH2ztL-16" style="edgeStyle=orthogonalEdgeStyle;rounded=0;orthogonalLoop=1;jettySize=auto;html=1;exitX=0;exitY=0.5;exitDx=0;exitDy=0;entryX=1;entryY=0.5;entryDx=0;entryDy=0;" parent="ueSuB8wyHMOpmiDH2ztL-1" source="ueSuB8wyHMOpmiDH2ztL-22" target="ueSuB8wyHMOpmiDH2ztL-8" edge="1">
          <mxGeometry relative="1" as="geometry" />
        </mxCell>
        <mxCell id="ueSuB8wyHMOpmiDH2ztL-17" value="Timer" style="swimlane;html=1;startSize=20;" parent="ueSuB8wyHMOpmiDH2ztL-1" vertex="1">
          <mxGeometry x="320" y="20" width="160" height="730" as="geometry" />
        </mxCell>
        <mxCell id="ueSuB8wyHMOpmiDH2ztL-18" style="edgeStyle=orthogonalEdgeStyle;rounded=0;orthogonalLoop=1;jettySize=auto;html=1;exitX=0.5;exitY=1;exitDx=0;exitDy=0;entryX=0.5;entryY=0;entryDx=0;entryDy=0;" parent="ueSuB8wyHMOpmiDH2ztL-17" source="ueSuB8wyHMOpmiDH2ztL-19" target="ueSuB8wyHMOpmiDH2ztL-21" edge="1">
          <mxGeometry relative="1" as="geometry" />
        </mxCell>
        <mxCell id="ueSuB8wyHMOpmiDH2ztL-19" value="clear heartbeat &lt;br&gt;timeout" style="rounded=1;whiteSpace=wrap;html=1;shadow=0;labelBackgroundColor=none;strokeWidth=1;fontFamily=Verdana;fontSize=8;align=center;" parent="ueSuB8wyHMOpmiDH2ztL-17" vertex="1">
          <mxGeometry x="30" y="460" width="100" height="60" as="geometry" />
        </mxCell>
        <mxCell id="ueSuB8wyHMOpmiDH2ztL-20" style="edgeStyle=orthogonalEdgeStyle;rounded=0;orthogonalLoop=1;jettySize=auto;html=1;exitX=0.5;exitY=1;exitDx=0;exitDy=0;entryX=0.5;entryY=0;entryDx=0;entryDy=0;" parent="ueSuB8wyHMOpmiDH2ztL-17" source="ueSuB8wyHMOpmiDH2ztL-21" target="ueSuB8wyHMOpmiDH2ztL-22" edge="1">
          <mxGeometry relative="1" as="geometry" />
        </mxCell>
        <mxCell id="ueSuB8wyHMOpmiDH2ztL-21" value="Start ping timeout&lt;br&gt;(3*1000 ms)" style="rounded=1;whiteSpace=wrap;html=1;shadow=0;labelBackgroundColor=none;strokeWidth=1;fontFamily=Verdana;fontSize=8;align=center;" parent="ueSuB8wyHMOpmiDH2ztL-17" vertex="1">
          <mxGeometry x="30" y="550" width="100" height="60" as="geometry" />
        </mxCell>
        <mxCell id="ueSuB8wyHMOpmiDH2ztL-22" value="Start Heartbeat&lt;br&gt;(10*1000 ms)&lt;br&gt;timeout throw Error" style="rounded=1;whiteSpace=wrap;html=1;shadow=0;labelBackgroundColor=none;strokeWidth=1;fontFamily=Verdana;fontSize=8;align=center;fillColor=#f8cecc;strokeColor=#b85450;" parent="ueSuB8wyHMOpmiDH2ztL-17" vertex="1">
          <mxGeometry x="30" y="640" width="100" height="60" as="geometry" />
        </mxCell>
        <mxCell id="ueSuB8wyHMOpmiDH2ztL-23" value="Server" style="swimlane;html=1;startSize=20;" parent="ueSuB8wyHMOpmiDH2ztL-1" vertex="1">
          <mxGeometry x="480" y="20" width="160" height="730" as="geometry" />
        </mxCell>
        <mxCell id="ueSuB8wyHMOpmiDH2ztL-24" value="Websocket Server" style="rounded=1;whiteSpace=wrap;html=1;shadow=0;labelBackgroundColor=none;strokeWidth=1;fontFamily=Verdana;fontSize=8;align=center;" parent="ueSuB8wyHMOpmiDH2ztL-23" vertex="1">
          <mxGeometry x="30" y="65" width="100" height="60" as="geometry" />
        </mxCell>
        <mxCell id="ueSuB8wyHMOpmiDH2ztL-25" style="edgeStyle=orthogonalEdgeStyle;rounded=0;orthogonalLoop=1;jettySize=auto;html=1;exitX=0.5;exitY=0;exitDx=0;exitDy=0;entryX=0.75;entryY=1;entryDx=0;entryDy=0;" parent="ueSuB8wyHMOpmiDH2ztL-23" source="ueSuB8wyHMOpmiDH2ztL-27" target="ueSuB8wyHMOpmiDH2ztL-24" edge="1">
          <mxGeometry relative="1" as="geometry" />
        </mxCell>
        <mxCell id="ueSuB8wyHMOpmiDH2ztL-26" value="Send Ping" style="edgeLabel;html=1;align=center;verticalAlign=middle;resizable=0;points=[];" parent="ueSuB8wyHMOpmiDH2ztL-25" vertex="1" connectable="0">
          <mxGeometry x="-0.7224" y="-1" relative="1" as="geometry">
            <mxPoint as="offset" />
          </mxGeometry>
        </mxCell>
        <mxCell id="ueSuB8wyHMOpmiDH2ztL-27" value="timeout" style="rhombus;whiteSpace=wrap;html=1;rounded=0;shadow=0;labelBackgroundColor=none;strokeWidth=1;fontFamily=Verdana;fontSize=8;align=center;" parent="ueSuB8wyHMOpmiDH2ztL-23" vertex="1">
          <mxGeometry x="65" y="550" width="80" height="60" as="geometry" />
        </mxCell>
        <mxCell id="ueSuB8wyHMOpmiDH2ztL-28" value="" style="edgeStyle=orthogonalEdgeStyle;rounded=0;orthogonalLoop=1;jettySize=auto;html=1;exitX=1;exitY=0.5;exitDx=0;exitDy=0;" parent="ueSuB8wyHMOpmiDH2ztL-1" source="ueSuB8wyHMOpmiDH2ztL-10" target="ueSuB8wyHMOpmiDH2ztL-24" edge="1">
          <mxGeometry relative="1" as="geometry">
            <mxPoint x="290" y="115" as="sourcePoint" />
          </mxGeometry>
        </mxCell>
        <mxCell id="ueSuB8wyHMOpmiDH2ztL-29" value="Connection" style="edgeLabel;html=1;align=center;verticalAlign=middle;resizable=0;points=[];" parent="ueSuB8wyHMOpmiDH2ztL-28" vertex="1" connectable="0">
          <mxGeometry x="-0.179" y="3" relative="1" as="geometry">
            <mxPoint x="20" y="3" as="offset" />
          </mxGeometry>
        </mxCell>
        <mxCell id="ueSuB8wyHMOpmiDH2ztL-30" style="edgeStyle=orthogonalEdgeStyle;rounded=1;html=1;labelBackgroundColor=none;startArrow=none;startFill=0;startSize=5;endArrow=classicThin;endFill=1;endSize=5;jettySize=auto;orthogonalLoop=1;strokeColor=#000000;strokeWidth=1;fontFamily=Verdana;fontSize=8;fontColor=#000000;exitX=0.5;exitY=1;exitDx=0;exitDy=0;entryX=1.003;entryY=0.564;entryDx=0;entryDy=0;entryPerimeter=0;" parent="ueSuB8wyHMOpmiDH2ztL-1" source="ueSuB8wyHMOpmiDH2ztL-24" target="ueSuB8wyHMOpmiDH2ztL-11" edge="1">
          <mxGeometry relative="1" as="geometry">
            <mxPoint x="559.83" y="200" as="sourcePoint" />
            <mxPoint x="559.83" y="220" as="targetPoint" />
          </mxGeometry>
        </mxCell>
        <mxCell id="ueSuB8wyHMOpmiDH2ztL-31" value="opened" style="edgeLabel;html=1;align=center;verticalAlign=middle;resizable=0;points=[];" parent="ueSuB8wyHMOpmiDH2ztL-30" vertex="1" connectable="0">
          <mxGeometry x="0.191" relative="1" as="geometry">
            <mxPoint x="-27" as="offset" />
          </mxGeometry>
        </mxCell>
        <mxCell id="ueSuB8wyHMOpmiDH2ztL-32" style="edgeStyle=orthogonalEdgeStyle;rounded=1;html=1;labelBackgroundColor=none;startArrow=none;startFill=0;startSize=5;endArrow=classicThin;endFill=1;endSize=5;jettySize=auto;orthogonalLoop=1;strokeColor=#000000;strokeWidth=1;fontFamily=Verdana;fontSize=8;fontColor=#000000;exitX=0.5;exitY=1;exitDx=0;exitDy=0;entryX=1;entryY=0.5;entryDx=0;entryDy=0;" parent="ueSuB8wyHMOpmiDH2ztL-1" source="ueSuB8wyHMOpmiDH2ztL-24" target="ueSuB8wyHMOpmiDH2ztL-12" edge="1">
          <mxGeometry relative="1" as="geometry">
            <mxPoint x="570" y="330" as="sourcePoint" />
            <mxPoint x="600" y="290" as="targetPoint" />
          </mxGeometry>
        </mxCell>
        <mxCell id="ueSuB8wyHMOpmiDH2ztL-33" value="push message" style="edgeLabel;html=1;align=center;verticalAlign=middle;resizable=0;points=[];" parent="ueSuB8wyHMOpmiDH2ztL-32" vertex="1" connectable="0">
          <mxGeometry x="0.5947" y="-2" relative="1" as="geometry">
            <mxPoint as="offset" />
          </mxGeometry>
        </mxCell>
        <mxCell id="ueSuB8wyHMOpmiDH2ztL-34" style="edgeStyle=orthogonalEdgeStyle;rounded=0;orthogonalLoop=1;jettySize=auto;html=1;exitX=1;exitY=0.5;exitDx=0;exitDy=0;entryX=0;entryY=0.5;entryDx=0;entryDy=0;" parent="ueSuB8wyHMOpmiDH2ztL-1" source="ueSuB8wyHMOpmiDH2ztL-5" target="ueSuB8wyHMOpmiDH2ztL-10" edge="1">
          <mxGeometry relative="1" as="geometry" />
        </mxCell>
        <mxCell id="ueSuB8wyHMOpmiDH2ztL-35" style="edgeStyle=orthogonalEdgeStyle;rounded=0;orthogonalLoop=1;jettySize=auto;html=1;exitX=0;exitY=0.5;exitDx=0;exitDy=0;entryX=1;entryY=0.5;entryDx=0;entryDy=0;" parent="ueSuB8wyHMOpmiDH2ztL-1" source="ueSuB8wyHMOpmiDH2ztL-14" target="ueSuB8wyHMOpmiDH2ztL-4" edge="1">
          <mxGeometry relative="1" as="geometry" />
        </mxCell>
        <mxCell id="ueSuB8wyHMOpmiDH2ztL-36" style="edgeStyle=orthogonalEdgeStyle;rounded=0;orthogonalLoop=1;jettySize=auto;html=1;exitX=0;exitY=0.5;exitDx=0;exitDy=0;entryX=0.75;entryY=1;entryDx=0;entryDy=0;" parent="ueSuB8wyHMOpmiDH2ztL-1" source="ueSuB8wyHMOpmiDH2ztL-13" target="ueSuB8wyHMOpmiDH2ztL-4" edge="1">
          <mxGeometry relative="1" as="geometry" />
        </mxCell>
        <mxCell id="ueSuB8wyHMOpmiDH2ztL-37" style="edgeStyle=orthogonalEdgeStyle;rounded=0;orthogonalLoop=1;jettySize=auto;html=1;exitX=1;exitY=0.25;exitDx=0;exitDy=0;entryX=0.25;entryY=1;entryDx=0;entryDy=0;" parent="ueSuB8wyHMOpmiDH2ztL-1" source="ueSuB8wyHMOpmiDH2ztL-11" target="ueSuB8wyHMOpmiDH2ztL-24" edge="1">
          <mxGeometry relative="1" as="geometry" />
        </mxCell>
        <mxCell id="ueSuB8wyHMOpmiDH2ztL-38" value="Subscribe" style="edgeLabel;html=1;align=center;verticalAlign=middle;resizable=0;points=[];" parent="ueSuB8wyHMOpmiDH2ztL-37" vertex="1" connectable="0">
          <mxGeometry x="-0.0372" y="1" relative="1" as="geometry">
            <mxPoint x="-32" as="offset" />
          </mxGeometry>
        </mxCell>
        <mxCell id="ueSuB8wyHMOpmiDH2ztL-39" style="edgeStyle=orthogonalEdgeStyle;rounded=0;orthogonalLoop=1;jettySize=auto;html=1;exitX=1;exitY=0.5;exitDx=0;exitDy=0;entryX=0;entryY=0.5;entryDx=0;entryDy=0;" parent="ueSuB8wyHMOpmiDH2ztL-1" source="ueSuB8wyHMOpmiDH2ztL-21" target="ueSuB8wyHMOpmiDH2ztL-27" edge="1">
          <mxGeometry relative="1" as="geometry">
            <mxPoint x="580" y="650" as="targetPoint" />
          </mxGeometry>
        </mxCell>
      </root>
    </mxGraphModel>
  </diagram>
  <diagram id="-DD-FT4mrsYRnRodTcJv" name="mock-trading">
    <mxGraphModel dx="786" dy="1160" grid="1" gridSize="10" guides="1" tooltips="1" connect="1" arrows="1" fold="1" page="1" pageScale="1" pageWidth="827" pageHeight="1169" math="0" shadow="0">
      <root>
        <mxCell id="0" />
        <mxCell id="1" parent="0" />
        <mxCell id="PolJzd0CyJyReHSWtArl-1" value="" style="endArrow=classic;html=1;rounded=0;" edge="1" parent="1">
          <mxGeometry width="50" height="50" relative="1" as="geometry">
            <mxPoint x="150" y="360" as="sourcePoint" />
            <mxPoint x="670" y="360" as="targetPoint" />
          </mxGeometry>
        </mxCell>
        <mxCell id="PolJzd0CyJyReHSWtArl-2" value="" style="endArrow=none;html=1;rounded=0;" edge="1" parent="1">
          <mxGeometry width="50" height="50" relative="1" as="geometry">
            <mxPoint x="390" y="620" as="sourcePoint" />
            <mxPoint x="390" y="120" as="targetPoint" />
          </mxGeometry>
        </mxCell>
        <mxCell id="PolJzd0CyJyReHSWtArl-3" value="Web" style="text;html=1;align=center;verticalAlign=middle;resizable=0;points=[];autosize=1;strokeColor=none;fillColor=none;" vertex="1" parent="1">
          <mxGeometry x="115" y="40" width="50" height="30" as="geometry" />
        </mxCell>
        <mxCell id="PolJzd0CyJyReHSWtArl-4" value="Java" style="text;html=1;align=center;verticalAlign=middle;resizable=0;points=[];autosize=1;strokeColor=none;fillColor=none;" vertex="1" parent="1">
          <mxGeometry x="370" y="40" width="50" height="30" as="geometry" />
        </mxCell>
        <mxCell id="PolJzd0CyJyReHSWtArl-5" value="Engine" style="text;html=1;align=center;verticalAlign=middle;resizable=0;points=[];autosize=1;strokeColor=none;fillColor=none;" vertex="1" parent="1">
          <mxGeometry x="620" y="40" width="60" height="30" as="geometry" />
        </mxCell>
        <mxCell id="PolJzd0CyJyReHSWtArl-6" value="数据源&lt;br&gt;1. ws 订阅&lt;br&gt;2. restful 基础接口" style="whiteSpace=wrap;html=1;" vertex="1" parent="1">
          <mxGeometry x="40" y="170" width="120" height="60" as="geometry" />
        </mxCell>
        <mxCell id="PolJzd0CyJyReHSWtArl-7" value="下单相关接口&lt;br&gt;(下单、调整杠杆)" style="whiteSpace=wrap;html=1;" vertex="1" parent="1">
          <mxGeometry x="596" y="170" width="120" height="60" as="geometry" />
        </mxCell>
        <mxCell id="PolJzd0CyJyReHSWtArl-8" value="Java restful 相关接口&lt;br&gt;1. Assets&lt;br&gt;2. 订单历史" style="whiteSpace=wrap;html=1;" vertex="1" parent="1">
          <mxGeometry x="220" y="460" width="120" height="60" as="geometry" />
        </mxCell>
        <mxCell id="PolJzd0CyJyReHSWtArl-9" value="校验用户状态和接口传参一致性" style="ellipse;whiteSpace=wrap;html=1;" vertex="1" parent="1">
          <mxGeometry x="686" y="210" width="80" height="80" as="geometry" />
        </mxCell>
        <mxCell id="PolJzd0CyJyReHSWtArl-10" value="直接根据接口参数返回" style="ellipse;whiteSpace=wrap;html=1;" vertex="1" parent="1">
          <mxGeometry x="310" y="495" width="80" height="80" as="geometry" />
        </mxCell>
        <mxCell id="PolJzd0CyJyReHSWtArl-11" value="设置&lt;br&gt;1. API Management&lt;br&gt;2. 子账户&lt;br&gt;3. 常规设置..." style="whiteSpace=wrap;html=1;" vertex="1" parent="1">
          <mxGeometry x="420" y="460" width="120" height="60" as="geometry" />
        </mxCell>
        <mxCell id="PolJzd0CyJyReHSWtArl-12" value="不提供simulate独立配置（看产品规划）" style="ellipse;whiteSpace=wrap;html=1;" vertex="1" parent="1">
          <mxGeometry x="516" y="505" width="80" height="80" as="geometry" />
        </mxCell>
        <mxCell id="PolJzd0CyJyReHSWtArl-13" value="状态切换，刷新切换源数据" style="ellipse;whiteSpace=wrap;html=1;" vertex="1" parent="1">
          <mxGeometry x="140" y="210" width="80" height="80" as="geometry" />
        </mxCell>
      </root>
    </mxGraphModel>
  </diagram>
  <diagram id="qJyfaeAr5t3WELmlCrZU" name="tv-ohlc-seq (app封装)">
    <mxGraphModel dx="882" dy="620" grid="1" gridSize="10" guides="1" tooltips="1" connect="1" arrows="1" fold="1" page="1" pageScale="1" pageWidth="827" pageHeight="1169" math="0" shadow="0">
      <root>
        <mxCell id="0" />
        <mxCell id="1" parent="0" />
        <mxCell id="2gfM36ANBQ6vFRYlOkID-1" value="tradingview" style="shape=umlLifeline;perimeter=lifelinePerimeter;whiteSpace=wrap;html=1;container=0;dropTarget=0;collapsible=0;recursiveResize=0;outlineConnect=0;portConstraint=eastwest;newEdgeStyle={&quot;edgeStyle&quot;:&quot;elbowEdgeStyle&quot;,&quot;elbow&quot;:&quot;vertical&quot;,&quot;curved&quot;:0,&quot;rounded&quot;:0};" parent="1" vertex="1">
          <mxGeometry x="305" y="45" width="100" height="730" as="geometry" />
        </mxCell>
        <mxCell id="2gfM36ANBQ6vFRYlOkID-2" value="" style="html=1;points=[];perimeter=orthogonalPerimeter;outlineConnect=0;targetShapes=umlLifeline;portConstraint=eastwest;newEdgeStyle={&quot;edgeStyle&quot;:&quot;elbowEdgeStyle&quot;,&quot;elbow&quot;:&quot;vertical&quot;,&quot;curved&quot;:0,&quot;rounded&quot;:0};" parent="2gfM36ANBQ6vFRYlOkID-1" vertex="1">
          <mxGeometry x="45" y="110" width="10" height="480" as="geometry" />
        </mxCell>
        <mxCell id="2gfM36ANBQ6vFRYlOkID-3" value="" style="html=1;points=[];perimeter=orthogonalPerimeter;outlineConnect=0;targetShapes=umlLifeline;portConstraint=eastwest;newEdgeStyle={&quot;edgeStyle&quot;:&quot;elbowEdgeStyle&quot;,&quot;elbow&quot;:&quot;vertical&quot;,&quot;curved&quot;:0,&quot;rounded&quot;:0};" parent="2gfM36ANBQ6vFRYlOkID-1" vertex="1">
          <mxGeometry x="35" y="160" width="10" height="80" as="geometry" />
        </mxCell>
        <mxCell id="2gfM36ANBQ6vFRYlOkID-4" value="" style="html=1;points=[];perimeter=orthogonalPerimeter;outlineConnect=0;targetShapes=umlLifeline;portConstraint=eastwest;newEdgeStyle={&quot;edgeStyle&quot;:&quot;elbowEdgeStyle&quot;,&quot;elbow&quot;:&quot;vertical&quot;,&quot;curved&quot;:0,&quot;rounded&quot;:0};" parent="2gfM36ANBQ6vFRYlOkID-1" vertex="1">
          <mxGeometry x="35" y="450" width="10" height="80" as="geometry" />
        </mxCell>
        <mxCell id="2gfM36ANBQ6vFRYlOkID-5" value="E: subscribeBars" style="html=1;verticalAlign=bottom;endArrow=block;edgeStyle=elbowEdgeStyle;elbow=vertical;curved=0;rounded=0;" parent="2gfM36ANBQ6vFRYlOkID-1" source="2gfM36ANBQ6vFRYlOkID-4" target="2gfM36ANBQ6vFRYlOkID-6" edge="1">
          <mxGeometry relative="1" as="geometry">
            <mxPoint x="-45" y="410" as="sourcePoint" />
            <Array as="points">
              <mxPoint x="-30" y="460" />
            </Array>
            <mxPoint x="-120" y="495" as="targetPoint" />
          </mxGeometry>
        </mxCell>
        <mxCell id="2gfM36ANBQ6vFRYlOkID-6" value="" style="html=1;points=[];perimeter=orthogonalPerimeter;outlineConnect=0;targetShapes=umlLifeline;portConstraint=eastwest;newEdgeStyle={&quot;edgeStyle&quot;:&quot;elbowEdgeStyle&quot;,&quot;elbow&quot;:&quot;vertical&quot;,&quot;curved&quot;:0,&quot;rounded&quot;:0};" parent="2gfM36ANBQ6vFRYlOkID-1" vertex="1">
          <mxGeometry x="-125" y="450" width="10" height="80" as="geometry" />
        </mxCell>
        <mxCell id="2gfM36ANBQ6vFRYlOkID-7" value="E: subscribeBars" style="html=1;verticalAlign=bottom;endArrow=block;edgeStyle=elbowEdgeStyle;elbow=vertical;curved=0;rounded=0;" parent="2gfM36ANBQ6vFRYlOkID-1" source="2gfM36ANBQ6vFRYlOkID-6" edge="1">
          <mxGeometry x="-0.0007" relative="1" as="geometry">
            <mxPoint x="45" y="470" as="sourcePoint" />
            <Array as="points">
              <mxPoint x="-20" y="470" />
            </Array>
            <mxPoint x="239" y="470" as="targetPoint" />
            <mxPoint as="offset" />
          </mxGeometry>
        </mxCell>
        <mxCell id="2gfM36ANBQ6vFRYlOkID-8" value="F: subscribeBars()" style="html=1;verticalAlign=bottom;endArrow=block;edgeStyle=elbowEdgeStyle;elbow=vertical;curved=0;rounded=0;" parent="2gfM36ANBQ6vFRYlOkID-1" edge="1">
          <mxGeometry relative="1" as="geometry">
            <mxPoint x="235" y="500" as="sourcePoint" />
            <Array as="points">
              <mxPoint x="-10" y="500" />
            </Array>
            <mxPoint x="-115" y="500" as="targetPoint" />
          </mxGeometry>
        </mxCell>
        <mxCell id="2gfM36ANBQ6vFRYlOkID-9" value="F: subscribeBars()" style="html=1;verticalAlign=bottom;endArrow=block;edgeStyle=elbowEdgeStyle;elbow=vertical;curved=0;rounded=0;" parent="2gfM36ANBQ6vFRYlOkID-1" source="2gfM36ANBQ6vFRYlOkID-6" target="2gfM36ANBQ6vFRYlOkID-4" edge="1">
          <mxGeometry relative="1" as="geometry">
            <mxPoint x="40" y="560" as="sourcePoint" />
            <Array as="points">
              <mxPoint x="-40" y="520" />
            </Array>
            <mxPoint x="-110" y="560" as="targetPoint" />
            <mxPoint as="offset" />
          </mxGeometry>
        </mxCell>
        <mxCell id="2gfM36ANBQ6vFRYlOkID-10" value="订阅 kline，并实时返回" style="whiteSpace=wrap;html=1;" parent="2gfM36ANBQ6vFRYlOkID-1" vertex="1">
          <mxGeometry x="260" y="460" width="110" height="60" as="geometry" />
        </mxCell>
        <mxCell id="2gfM36ANBQ6vFRYlOkID-11" value="Loop" style="shape=umlFrame;whiteSpace=wrap;html=1;pointerEvents=0;" parent="2gfM36ANBQ6vFRYlOkID-1" vertex="1">
          <mxGeometry x="-195" y="440" width="595" height="120" as="geometry" />
        </mxCell>
        <mxCell id="2gfM36ANBQ6vFRYlOkID-12" value="" style="html=1;points=[];perimeter=orthogonalPerimeter;outlineConnect=0;targetShapes=umlLifeline;portConstraint=eastwest;newEdgeStyle={&quot;edgeStyle&quot;:&quot;elbowEdgeStyle&quot;,&quot;elbow&quot;:&quot;vertical&quot;,&quot;curved&quot;:0,&quot;rounded&quot;:0};" parent="2gfM36ANBQ6vFRYlOkID-1" vertex="1">
          <mxGeometry x="35" y="630" width="10" height="80" as="geometry" />
        </mxCell>
        <mxCell id="2gfM36ANBQ6vFRYlOkID-13" value="F: init(symbol,locale,theme,interval)" style="html=1;verticalAlign=bottom;endArrow=block;edgeStyle=elbowEdgeStyle;elbow=vertical;curved=0;rounded=0;" parent="1" edge="1">
          <mxGeometry x="-0.137" relative="1" as="geometry">
            <mxPoint x="544.4999999999998" y="145" as="sourcePoint" />
            <Array as="points">
              <mxPoint x="265" y="145" />
            </Array>
            <mxPoint x="174.875" y="145" as="targetPoint" />
            <mxPoint as="offset" />
          </mxGeometry>
        </mxCell>
        <mxCell id="2gfM36ANBQ6vFRYlOkID-14" value="E: resolveSymbol" style="html=1;verticalAlign=bottom;endArrow=block;edgeStyle=elbowEdgeStyle;elbow=vertical;curved=0;rounded=0;" parent="1" source="2gfM36ANBQ6vFRYlOkID-3" target="2gfM36ANBQ6vFRYlOkID-20" edge="1">
          <mxGeometry relative="1" as="geometry">
            <mxPoint x="260" y="165" as="sourcePoint" />
            <Array as="points">
              <mxPoint x="275" y="215" />
            </Array>
            <mxPoint x="185" y="250" as="targetPoint" />
          </mxGeometry>
        </mxCell>
        <mxCell id="2gfM36ANBQ6vFRYlOkID-15" value="app" style="shape=umlLifeline;perimeter=lifelinePerimeter;whiteSpace=wrap;html=1;container=0;dropTarget=0;collapsible=0;recursiveResize=0;outlineConnect=0;portConstraint=eastwest;newEdgeStyle={&quot;edgeStyle&quot;:&quot;elbowEdgeStyle&quot;,&quot;elbow&quot;:&quot;vertical&quot;,&quot;curved&quot;:0,&quot;rounded&quot;:0};" parent="1" vertex="1">
          <mxGeometry x="495" y="45" width="100" height="730" as="geometry" />
        </mxCell>
        <mxCell id="2gfM36ANBQ6vFRYlOkID-16" value="" style="html=1;points=[];perimeter=orthogonalPerimeter;outlineConnect=0;targetShapes=umlLifeline;portConstraint=eastwest;newEdgeStyle={&quot;edgeStyle&quot;:&quot;elbowEdgeStyle&quot;,&quot;elbow&quot;:&quot;vertical&quot;,&quot;curved&quot;:0,&quot;rounded&quot;:0};" parent="2gfM36ANBQ6vFRYlOkID-15" vertex="1">
          <mxGeometry x="45" y="150" width="10" height="440" as="geometry" />
        </mxCell>
        <mxCell id="2gfM36ANBQ6vFRYlOkID-17" value="初始化&lt;br&gt;OHLC 图" style="text;html=1;align=center;verticalAlign=middle;resizable=0;points=[];autosize=1;strokeColor=none;fillColor=none;" parent="1" vertex="1">
          <mxGeometry x="40" y="40" width="70" height="40" as="geometry" />
        </mxCell>
        <mxCell id="2gfM36ANBQ6vFRYlOkID-18" value="E:ready" style="html=1;verticalAlign=bottom;startArrow=oval;endArrow=block;startSize=8;edgeStyle=elbowEdgeStyle;elbow=vertical;curved=0;rounded=0;" parent="1" source="2gfM36ANBQ6vFRYlOkID-19" edge="1">
          <mxGeometry x="0.137" y="5" relative="1" as="geometry">
            <mxPoint x="174.875" y="115.13499999999999" as="sourcePoint" />
            <mxPoint x="544.4999999999998" y="115.13499999999999" as="targetPoint" />
            <mxPoint as="offset" />
          </mxGeometry>
        </mxCell>
        <mxCell id="2gfM36ANBQ6vFRYlOkID-19" value="web" style="shape=umlLifeline;perimeter=lifelinePerimeter;whiteSpace=wrap;html=1;container=0;dropTarget=0;collapsible=0;recursiveResize=0;outlineConnect=0;portConstraint=eastwest;newEdgeStyle={&quot;edgeStyle&quot;:&quot;elbowEdgeStyle&quot;,&quot;elbow&quot;:&quot;vertical&quot;,&quot;curved&quot;:0,&quot;rounded&quot;:0};" parent="1" vertex="1">
          <mxGeometry x="125" y="45" width="120" height="730" as="geometry" />
        </mxCell>
        <mxCell id="2gfM36ANBQ6vFRYlOkID-20" value="" style="html=1;points=[];perimeter=orthogonalPerimeter;outlineConnect=0;targetShapes=umlLifeline;portConstraint=eastwest;newEdgeStyle={&quot;edgeStyle&quot;:&quot;elbowEdgeStyle&quot;,&quot;elbow&quot;:&quot;vertical&quot;,&quot;curved&quot;:0,&quot;rounded&quot;:0};" parent="2gfM36ANBQ6vFRYlOkID-19" vertex="1">
          <mxGeometry x="55" y="150" width="10" height="90" as="geometry" />
        </mxCell>
        <mxCell id="2gfM36ANBQ6vFRYlOkID-21" value="" style="html=1;points=[];perimeter=orthogonalPerimeter;outlineConnect=0;targetShapes=umlLifeline;portConstraint=eastwest;newEdgeStyle={&quot;edgeStyle&quot;:&quot;elbowEdgeStyle&quot;,&quot;elbow&quot;:&quot;vertical&quot;,&quot;curved&quot;:0,&quot;rounded&quot;:0};" parent="2gfM36ANBQ6vFRYlOkID-19" vertex="1">
          <mxGeometry x="45" y="140" width="10" height="450" as="geometry" />
        </mxCell>
        <mxCell id="2gfM36ANBQ6vFRYlOkID-22" value="" style="html=1;points=[];perimeter=orthogonalPerimeter;outlineConnect=0;targetShapes=umlLifeline;portConstraint=eastwest;newEdgeStyle={&quot;edgeStyle&quot;:&quot;elbowEdgeStyle&quot;,&quot;elbow&quot;:&quot;vertical&quot;,&quot;curved&quot;:0,&quot;rounded&quot;:0};" parent="2gfM36ANBQ6vFRYlOkID-19" vertex="1">
          <mxGeometry x="215" y="300" width="10" height="80" as="geometry" />
        </mxCell>
        <mxCell id="2gfM36ANBQ6vFRYlOkID-23" value="E: getBars" style="html=1;verticalAlign=bottom;endArrow=block;edgeStyle=elbowEdgeStyle;elbow=vertical;curved=0;rounded=0;" parent="2gfM36ANBQ6vFRYlOkID-19" source="2gfM36ANBQ6vFRYlOkID-22" target="2gfM36ANBQ6vFRYlOkID-24" edge="1">
          <mxGeometry relative="1" as="geometry">
            <mxPoint x="135" y="260" as="sourcePoint" />
            <Array as="points">
              <mxPoint x="150" y="310" />
            </Array>
            <mxPoint x="60" y="345" as="targetPoint" />
          </mxGeometry>
        </mxCell>
        <mxCell id="2gfM36ANBQ6vFRYlOkID-24" value="" style="html=1;points=[];perimeter=orthogonalPerimeter;outlineConnect=0;targetShapes=umlLifeline;portConstraint=eastwest;newEdgeStyle={&quot;edgeStyle&quot;:&quot;elbowEdgeStyle&quot;,&quot;elbow&quot;:&quot;vertical&quot;,&quot;curved&quot;:0,&quot;rounded&quot;:0};" parent="2gfM36ANBQ6vFRYlOkID-19" vertex="1">
          <mxGeometry x="55" y="300" width="10" height="80" as="geometry" />
        </mxCell>
        <mxCell id="2gfM36ANBQ6vFRYlOkID-25" value="E: getBars" style="html=1;verticalAlign=bottom;endArrow=block;edgeStyle=elbowEdgeStyle;elbow=vertical;curved=0;rounded=0;" parent="2gfM36ANBQ6vFRYlOkID-19" source="2gfM36ANBQ6vFRYlOkID-24" edge="1">
          <mxGeometry relative="1" as="geometry">
            <mxPoint x="225" y="320" as="sourcePoint" />
            <Array as="points">
              <mxPoint x="160" y="320" />
            </Array>
            <mxPoint x="419" y="320" as="targetPoint" />
          </mxGeometry>
        </mxCell>
        <mxCell id="2gfM36ANBQ6vFRYlOkID-26" value="F: getBars()" style="html=1;verticalAlign=bottom;endArrow=block;edgeStyle=elbowEdgeStyle;elbow=vertical;curved=0;rounded=0;" parent="2gfM36ANBQ6vFRYlOkID-19" edge="1">
          <mxGeometry relative="1" as="geometry">
            <mxPoint x="415" y="350" as="sourcePoint" />
            <Array as="points">
              <mxPoint x="170" y="350" />
            </Array>
            <mxPoint x="65" y="350" as="targetPoint" />
          </mxGeometry>
        </mxCell>
        <mxCell id="2gfM36ANBQ6vFRYlOkID-27" value="F: getBars()" style="html=1;verticalAlign=bottom;endArrow=block;edgeStyle=elbowEdgeStyle;elbow=vertical;curved=0;rounded=0;" parent="2gfM36ANBQ6vFRYlOkID-19" source="2gfM36ANBQ6vFRYlOkID-24" target="2gfM36ANBQ6vFRYlOkID-22" edge="1">
          <mxGeometry relative="1" as="geometry">
            <mxPoint x="220" y="410" as="sourcePoint" />
            <Array as="points">
              <mxPoint x="140" y="370" />
            </Array>
            <mxPoint x="70" y="410" as="targetPoint" />
            <mxPoint as="offset" />
          </mxGeometry>
        </mxCell>
        <mxCell id="2gfM36ANBQ6vFRYlOkID-28" value="rest 接口获取某个时间段内的kline 数据" style="whiteSpace=wrap;html=1;" parent="2gfM36ANBQ6vFRYlOkID-19" vertex="1">
          <mxGeometry x="440" y="310" width="110" height="60" as="geometry" />
        </mxCell>
        <mxCell id="2gfM36ANBQ6vFRYlOkID-29" value="Loop" style="shape=umlFrame;whiteSpace=wrap;html=1;pointerEvents=0;" parent="2gfM36ANBQ6vFRYlOkID-19" vertex="1">
          <mxGeometry x="-15" y="270" width="595" height="120" as="geometry" />
        </mxCell>
        <mxCell id="2gfM36ANBQ6vFRYlOkID-30" value="E: resolveSymbol" style="html=1;verticalAlign=bottom;endArrow=block;edgeStyle=elbowEdgeStyle;elbow=vertical;curved=0;rounded=0;" parent="1" source="2gfM36ANBQ6vFRYlOkID-20" target="2gfM36ANBQ6vFRYlOkID-15" edge="1">
          <mxGeometry relative="1" as="geometry">
            <mxPoint x="350" y="225" as="sourcePoint" />
            <Array as="points">
              <mxPoint x="285" y="225" />
            </Array>
            <mxPoint x="200" y="225" as="targetPoint" />
          </mxGeometry>
        </mxCell>
        <mxCell id="2gfM36ANBQ6vFRYlOkID-31" value="F: resolveSymbol()" style="html=1;verticalAlign=bottom;endArrow=block;edgeStyle=elbowEdgeStyle;elbow=vertical;curved=0;rounded=0;" parent="1" edge="1">
          <mxGeometry relative="1" as="geometry">
            <mxPoint x="540" y="255" as="sourcePoint" />
            <Array as="points">
              <mxPoint x="295" y="255" />
            </Array>
            <mxPoint x="190" y="255" as="targetPoint" />
          </mxGeometry>
        </mxCell>
        <mxCell id="2gfM36ANBQ6vFRYlOkID-32" value="F: new Tradingview()" style="html=1;verticalAlign=bottom;endArrow=block;edgeStyle=elbowEdgeStyle;elbow=vertical;curved=0;rounded=0;" parent="1" source="2gfM36ANBQ6vFRYlOkID-19" target="2gfM36ANBQ6vFRYlOkID-2" edge="1">
          <mxGeometry x="-0.0007" relative="1" as="geometry">
            <mxPoint x="185" y="165" as="sourcePoint" />
            <Array as="points">
              <mxPoint x="260" y="165" />
            </Array>
            <mxPoint x="335" y="165" as="targetPoint" />
            <mxPoint as="offset" />
          </mxGeometry>
        </mxCell>
        <mxCell id="2gfM36ANBQ6vFRYlOkID-33" value="初始化" style="whiteSpace=wrap;html=1;" parent="1" vertex="1">
          <mxGeometry x="565" y="115" width="80" height="30" as="geometry" />
        </mxCell>
        <mxCell id="2gfM36ANBQ6vFRYlOkID-34" value="传入当前symbol 信息" style="whiteSpace=wrap;html=1;" parent="1" vertex="1">
          <mxGeometry x="565" y="225" width="80" height="30" as="geometry" />
        </mxCell>
        <mxCell id="2gfM36ANBQ6vFRYlOkID-35" value="E: unsubscribeBars" style="html=1;verticalAlign=bottom;endArrow=block;edgeStyle=elbowEdgeStyle;elbow=vertical;curved=0;rounded=0;" parent="1" source="2gfM36ANBQ6vFRYlOkID-12" target="2gfM36ANBQ6vFRYlOkID-36" edge="1">
          <mxGeometry relative="1" as="geometry">
            <mxPoint x="260" y="635" as="sourcePoint" />
            <Array as="points">
              <mxPoint x="275" y="685" />
            </Array>
            <mxPoint x="185" y="720" as="targetPoint" />
          </mxGeometry>
        </mxCell>
        <mxCell id="2gfM36ANBQ6vFRYlOkID-36" value="" style="html=1;points=[];perimeter=orthogonalPerimeter;outlineConnect=0;targetShapes=umlLifeline;portConstraint=eastwest;newEdgeStyle={&quot;edgeStyle&quot;:&quot;elbowEdgeStyle&quot;,&quot;elbow&quot;:&quot;vertical&quot;,&quot;curved&quot;:0,&quot;rounded&quot;:0};" parent="1" vertex="1">
          <mxGeometry x="180" y="675" width="10" height="80" as="geometry" />
        </mxCell>
        <mxCell id="2gfM36ANBQ6vFRYlOkID-37" value="E: unsubscribeBars" style="html=1;verticalAlign=bottom;endArrow=block;edgeStyle=elbowEdgeStyle;elbow=vertical;curved=0;rounded=0;" parent="1" source="2gfM36ANBQ6vFRYlOkID-36" edge="1">
          <mxGeometry x="-0.0007" relative="1" as="geometry">
            <mxPoint x="350" y="695" as="sourcePoint" />
            <Array as="points">
              <mxPoint x="285" y="695" />
            </Array>
            <mxPoint x="544" y="695" as="targetPoint" />
            <mxPoint as="offset" />
          </mxGeometry>
        </mxCell>
        <mxCell id="2gfM36ANBQ6vFRYlOkID-38" value="F: unsubscribeBars()" style="html=1;verticalAlign=bottom;endArrow=block;edgeStyle=elbowEdgeStyle;elbow=vertical;curved=0;rounded=0;" parent="1" edge="1">
          <mxGeometry relative="1" as="geometry">
            <mxPoint x="540" y="725" as="sourcePoint" />
            <Array as="points">
              <mxPoint x="295" y="725" />
            </Array>
            <mxPoint x="190" y="725" as="targetPoint" />
          </mxGeometry>
        </mxCell>
        <mxCell id="2gfM36ANBQ6vFRYlOkID-39" value="F: unsubscribeBars()" style="html=1;verticalAlign=bottom;endArrow=block;edgeStyle=elbowEdgeStyle;elbow=vertical;curved=0;rounded=0;" parent="1" source="2gfM36ANBQ6vFRYlOkID-36" target="2gfM36ANBQ6vFRYlOkID-12" edge="1">
          <mxGeometry relative="1" as="geometry">
            <mxPoint x="345" y="785" as="sourcePoint" />
            <Array as="points">
              <mxPoint x="265" y="745" />
            </Array>
            <mxPoint x="195" y="785" as="targetPoint" />
            <mxPoint as="offset" />
          </mxGeometry>
        </mxCell>
        <mxCell id="2gfM36ANBQ6vFRYlOkID-40" value="F: resolveSymbol()" style="html=1;verticalAlign=bottom;endArrow=block;edgeStyle=elbowEdgeStyle;elbow=vertical;curved=0;rounded=0;" parent="1" source="2gfM36ANBQ6vFRYlOkID-20" target="2gfM36ANBQ6vFRYlOkID-3" edge="1">
          <mxGeometry relative="1" as="geometry">
            <mxPoint x="190" y="305" as="sourcePoint" />
            <Array as="points">
              <mxPoint x="265" y="275" />
            </Array>
            <mxPoint x="340" y="305" as="targetPoint" />
            <mxPoint as="offset" />
          </mxGeometry>
        </mxCell>
      </root>
    </mxGraphModel>
  </diagram>
  <diagram id="vCYG9JJygBgu2jsKg06G" name="web cache">
    <mxGraphModel dx="786" dy="1160" grid="1" gridSize="10" guides="1" tooltips="1" connect="1" arrows="1" fold="1" page="1" pageScale="1" pageWidth="827" pageHeight="1169" math="0" shadow="0">
      <root>
        <mxCell id="0" />
        <mxCell id="1" parent="0" />
        <mxCell id="Xh45ay93Pfc410RBSJcG-1" value="" style="rounded=1;whiteSpace=wrap;html=1;" vertex="1" parent="1">
          <mxGeometry x="401" y="70" width="220" height="550" as="geometry" />
        </mxCell>
        <mxCell id="Xh45ay93Pfc410RBSJcG-2" value="S3&lt;br&gt;对象存储" style="rounded=1;whiteSpace=wrap;html=1;" vertex="1" parent="1">
          <mxGeometry x="441" y="120" width="120" height="160" as="geometry" />
        </mxCell>
        <mxCell id="Xh45ay93Pfc410RBSJcG-3" value="S3&lt;br&gt;对象存储" style="rounded=1;whiteSpace=wrap;html=1;" vertex="1" parent="1">
          <mxGeometry x="431" y="130" width="120" height="160" as="geometry" />
        </mxCell>
        <mxCell id="Xh45ay93Pfc410RBSJcG-4" style="edgeStyle=orthogonalEdgeStyle;rounded=0;orthogonalLoop=1;jettySize=auto;html=1;exitX=1;exitY=0.5;exitDx=0;exitDy=0;entryX=0;entryY=0.5;entryDx=0;entryDy=0;" edge="1" parent="1" source="Xh45ay93Pfc410RBSJcG-5" target="Xh45ay93Pfc410RBSJcG-7">
          <mxGeometry relative="1" as="geometry" />
        </mxCell>
        <mxCell id="Xh45ay93Pfc410RBSJcG-5" value="" style="rounded=1;whiteSpace=wrap;html=1;" vertex="1" parent="1">
          <mxGeometry x="50" y="70" width="120" height="550" as="geometry" />
        </mxCell>
        <mxCell id="Xh45ay93Pfc410RBSJcG-6" style="edgeStyle=orthogonalEdgeStyle;rounded=0;orthogonalLoop=1;jettySize=auto;html=1;exitX=1;exitY=0.5;exitDx=0;exitDy=0;entryX=0;entryY=0.5;entryDx=0;entryDy=0;" edge="1" parent="1" source="Xh45ay93Pfc410RBSJcG-7" target="Xh45ay93Pfc410RBSJcG-1">
          <mxGeometry relative="1" as="geometry" />
        </mxCell>
        <mxCell id="Xh45ay93Pfc410RBSJcG-7" value="" style="rounded=1;whiteSpace=wrap;html=1;" vertex="1" parent="1">
          <mxGeometry x="225" y="70" width="120" height="550" as="geometry" />
        </mxCell>
        <mxCell id="Xh45ay93Pfc410RBSJcG-8" value="S3 (对象存储)&lt;br&gt;不同 Bucket" style="rounded=1;whiteSpace=wrap;html=1;" vertex="1" parent="1">
          <mxGeometry x="421" y="140" width="120" height="160" as="geometry" />
        </mxCell>
        <mxCell id="Xh45ay93Pfc410RBSJcG-9" value="EC2&lt;br&gt;服务器" style="rounded=1;whiteSpace=wrap;html=1;" vertex="1" parent="1">
          <mxGeometry x="501" y="350" width="90" height="220" as="geometry" />
        </mxCell>
        <mxCell id="Xh45ay93Pfc410RBSJcG-10" value="Nginx" style="rounded=1;whiteSpace=wrap;html=1;" vertex="1" parent="1">
          <mxGeometry x="421" y="350" width="100" height="220" as="geometry" />
        </mxCell>
        <mxCell id="Xh45ay93Pfc410RBSJcG-11" value="源数据" style="text;html=1;align=center;verticalAlign=middle;resizable=0;points=[];autosize=1;strokeColor=none;fillColor=none;fontSize=16;" vertex="1" parent="1">
          <mxGeometry x="396" y="40" width="70" height="30" as="geometry" />
        </mxCell>
        <mxCell id="Xh45ay93Pfc410RBSJcG-12" value="CDN" style="text;html=1;align=center;verticalAlign=middle;resizable=0;points=[];autosize=1;strokeColor=none;fillColor=none;fontSize=16;" vertex="1" parent="1">
          <mxGeometry x="220" y="40" width="60" height="30" as="geometry" />
        </mxCell>
        <mxCell id="Xh45ay93Pfc410RBSJcG-13" style="edgeStyle=orthogonalEdgeStyle;rounded=0;orthogonalLoop=1;jettySize=auto;html=1;exitX=0.25;exitY=1;exitDx=0;exitDy=0;entryX=0.25;entryY=0;entryDx=0;entryDy=0;" edge="1" parent="1" source="Xh45ay93Pfc410RBSJcG-14" target="Xh45ay93Pfc410RBSJcG-20">
          <mxGeometry relative="1" as="geometry" />
        </mxCell>
        <mxCell id="Xh45ay93Pfc410RBSJcG-14" value="CloudFront&lt;br&gt;节点" style="rounded=1;whiteSpace=wrap;html=1;" vertex="1" parent="1">
          <mxGeometry x="235" y="185" width="100" height="70" as="geometry" />
        </mxCell>
        <mxCell id="Xh45ay93Pfc410RBSJcG-15" value="client" style="rounded=1;whiteSpace=wrap;html=1;" vertex="1" parent="1">
          <mxGeometry x="55" y="230" width="110" height="50" as="geometry" />
        </mxCell>
        <mxCell id="Xh45ay93Pfc410RBSJcG-16" value="client" style="rounded=1;whiteSpace=wrap;html=1;" vertex="1" parent="1">
          <mxGeometry x="55" y="300" width="110" height="50" as="geometry" />
        </mxCell>
        <mxCell id="Xh45ay93Pfc410RBSJcG-17" value="client" style="rounded=1;whiteSpace=wrap;html=1;" vertex="1" parent="1">
          <mxGeometry x="55" y="370" width="110" height="50" as="geometry" />
        </mxCell>
        <mxCell id="Xh45ay93Pfc410RBSJcG-18" value="终端用户" style="text;html=1;align=center;verticalAlign=middle;resizable=0;points=[];autosize=1;strokeColor=none;fillColor=none;fontSize=16;" vertex="1" parent="1">
          <mxGeometry x="40" y="40" width="90" height="30" as="geometry" />
        </mxCell>
        <mxCell id="Xh45ay93Pfc410RBSJcG-19" style="edgeStyle=orthogonalEdgeStyle;rounded=0;orthogonalLoop=1;jettySize=auto;html=1;exitX=0.75;exitY=0;exitDx=0;exitDy=0;entryX=0.75;entryY=1;entryDx=0;entryDy=0;" edge="1" parent="1" source="Xh45ay93Pfc410RBSJcG-20" target="Xh45ay93Pfc410RBSJcG-14">
          <mxGeometry relative="1" as="geometry" />
        </mxCell>
        <mxCell id="Xh45ay93Pfc410RBSJcG-20" value="Waf&lt;br&gt;防火墙" style="rounded=1;whiteSpace=wrap;html=1;" vertex="1" parent="1">
          <mxGeometry x="235" y="425" width="100" height="70" as="geometry" />
        </mxCell>
      </root>
    </mxGraphModel>
  </diagram>
  <diagram id="-5pT6YVTOmFeBb3PdjUv" name="web3-wallet">
    <mxGraphModel dx="786" dy="1160" grid="1" gridSize="10" guides="1" tooltips="1" connect="1" arrows="1" fold="1" page="1" pageScale="1" pageWidth="827" pageHeight="1169" math="0" shadow="0">
      <root>
        <mxCell id="0" />
        <mxCell id="1" parent="0" />
        <mxCell id="Q8SUT0qkrA896iAZzjGH-1" value="" style="group" vertex="1" connectable="0" parent="1">
          <mxGeometry x="70" y="320" width="490" height="270" as="geometry" />
        </mxCell>
        <mxCell id="Q8SUT0qkrA896iAZzjGH-2" value="" style="group" vertex="1" connectable="0" parent="Q8SUT0qkrA896iAZzjGH-1">
          <mxGeometry x="-10" width="500" height="270" as="geometry" />
        </mxCell>
        <mxCell id="Q8SUT0qkrA896iAZzjGH-3" value="" style="group" vertex="1" connectable="0" parent="Q8SUT0qkrA896iAZzjGH-2">
          <mxGeometry x="90" width="410" height="270" as="geometry" />
        </mxCell>
        <mxCell id="Q8SUT0qkrA896iAZzjGH-4" value="Account / EOA&lt;div&gt;&lt;br&gt;&lt;/div&gt;&lt;div&gt;Properties&lt;/div&gt;&lt;div&gt;{&lt;/div&gt;&lt;div&gt;&lt;span style=&quot;white-space: pre;&quot;&gt;&#x9;&lt;/span&gt;address,&lt;br&gt;&lt;span style=&quot;white-space: pre;&quot;&gt;&#x9;&lt;/span&gt;balance,&lt;br&gt;&lt;/div&gt;&lt;div&gt;&lt;span style=&quot;white-space: pre;&quot;&gt;&#x9;&lt;/span&gt;nonce,&lt;br&gt;&lt;/div&gt;&lt;div&gt;&lt;span style=&quot;white-space: pre;&quot;&gt;&#x9;&lt;/span&gt;optional(storage, code)&lt;br&gt;&lt;/div&gt;&lt;div&gt;}&lt;br&gt;&lt;br&gt;&lt;/div&gt;" style="rounded=0;whiteSpace=wrap;html=1;align=left;verticalAlign=top;" vertex="1" parent="Q8SUT0qkrA896iAZzjGH-3">
          <mxGeometry width="410" height="270" as="geometry" />
        </mxCell>
        <mxCell id="Q8SUT0qkrA896iAZzjGH-5" value="private key, optional" style="rounded=0;whiteSpace=wrap;html=1;" vertex="1" parent="Q8SUT0qkrA896iAZzjGH-3">
          <mxGeometry y="220" width="410" height="50" as="geometry" />
        </mxCell>
        <mxCell id="Q8SUT0qkrA896iAZzjGH-6" value="UI" style="rounded=0;whiteSpace=wrap;html=1;" vertex="1" parent="Q8SUT0qkrA896iAZzjGH-3">
          <mxGeometry y="170" width="410" height="50" as="geometry" />
        </mxCell>
        <mxCell id="Q8SUT0qkrA896iAZzjGH-7" value="Account 概念" style="text;html=1;align=center;verticalAlign=middle;resizable=0;points=[];autosize=1;strokeColor=none;fillColor=none;" vertex="1" parent="Q8SUT0qkrA896iAZzjGH-2">
          <mxGeometry width="90" height="30" as="geometry" />
        </mxCell>
        <mxCell id="Q8SUT0qkrA896iAZzjGH-8" value="Wallet 概念" style="text;html=1;align=center;verticalAlign=middle;resizable=0;points=[];autosize=1;strokeColor=none;fillColor=none;" vertex="1" parent="Q8SUT0qkrA896iAZzjGH-2">
          <mxGeometry x="10" y="170" width="80" height="30" as="geometry" />
        </mxCell>
        <mxCell id="Q8SUT0qkrA896iAZzjGH-9" value="" style="endArrow=none;html=1;rounded=0;" edge="1" parent="1">
          <mxGeometry width="50" height="50" relative="1" as="geometry">
            <mxPoint x="40" y="300" as="sourcePoint" />
            <mxPoint x="810" y="300" as="targetPoint" />
          </mxGeometry>
        </mxCell>
        <mxCell id="Q8SUT0qkrA896iAZzjGH-10" value="Client Api" style="rounded=0;whiteSpace=wrap;html=1;" vertex="1" parent="1">
          <mxGeometry x="150" y="220" width="410" height="60" as="geometry" />
        </mxCell>
        <mxCell id="Q8SUT0qkrA896iAZzjGH-11" value="Viem =&amp;gt; ethers.js / web3.js" style="rounded=0;whiteSpace=wrap;html=1;" vertex="1" parent="1">
          <mxGeometry x="150" y="130" width="410" height="60" as="geometry" />
        </mxCell>
        <mxCell id="Q8SUT0qkrA896iAZzjGH-12" value="wagmi" style="rounded=0;whiteSpace=wrap;html=1;" vertex="1" parent="1">
          <mxGeometry x="150" y="40" width="410" height="60" as="geometry" />
        </mxCell>
        <mxCell id="Q8SUT0qkrA896iAZzjGH-13" value="私钥&lt;br&gt;本地存储/签名" style="text;html=1;align=left;verticalAlign=middle;resizable=0;points=[];autosize=1;strokeColor=none;fillColor=none;" vertex="1" parent="1">
          <mxGeometry x="620" y="370" width="100" height="40" as="geometry" />
        </mxCell>
        <mxCell id="Q8SUT0qkrA896iAZzjGH-14" value="Json - RPC&lt;br&gt;异步签名（插件 / walletConnect）" style="text;html=1;align=left;verticalAlign=middle;resizable=0;points=[];autosize=1;strokeColor=none;fillColor=none;" vertex="1" parent="1">
          <mxGeometry x="620" y="495" width="200" height="40" as="geometry" />
        </mxCell>
      </root>
    </mxGraphModel>
  </diagram>
  <diagram id="mprY9MUWBOsxhzb5xcsu" name="twitter-login">
    <mxGraphModel dx="882" dy="620" grid="1" gridSize="10" guides="1" tooltips="1" connect="1" arrows="1" fold="1" page="1" pageScale="1" pageWidth="827" pageHeight="1169" math="0" shadow="0">
      <root>
        <mxCell id="0" />
        <mxCell id="1" parent="0" />
        <mxCell id="ykaJu9SZ5LzuRN2qTZnT-1" value="Web" style="shape=umlLifeline;perimeter=lifelinePerimeter;whiteSpace=wrap;html=1;container=0;dropTarget=0;collapsible=0;recursiveResize=0;outlineConnect=0;portConstraint=eastwest;newEdgeStyle={&quot;edgeStyle&quot;:&quot;elbowEdgeStyle&quot;,&quot;elbow&quot;:&quot;vertical&quot;,&quot;curved&quot;:0,&quot;rounded&quot;:0};" parent="1" vertex="1">
          <mxGeometry x="130" y="40" width="100" height="620" as="geometry" />
        </mxCell>
        <mxCell id="ykaJu9SZ5LzuRN2qTZnT-2" value="" style="html=1;points=[];perimeter=orthogonalPerimeter;outlineConnect=0;targetShapes=umlLifeline;portConstraint=eastwest;newEdgeStyle={&quot;edgeStyle&quot;:&quot;elbowEdgeStyle&quot;,&quot;elbow&quot;:&quot;vertical&quot;,&quot;curved&quot;:0,&quot;rounded&quot;:0};" parent="ykaJu9SZ5LzuRN2qTZnT-1" vertex="1">
          <mxGeometry x="45" y="70" width="10" height="130" as="geometry" />
        </mxCell>
        <mxCell id="ykaJu9SZ5LzuRN2qTZnT-3" value="用户点击twitter登录" style="html=1;verticalAlign=bottom;startArrow=oval;endArrow=block;startSize=8;edgeStyle=elbowEdgeStyle;elbow=vertical;curved=0;rounded=0;" parent="ykaJu9SZ5LzuRN2qTZnT-1" target="ykaJu9SZ5LzuRN2qTZnT-2" edge="1">
          <mxGeometry x="-0.2857" y="10" relative="1" as="geometry">
            <mxPoint x="-15" y="70" as="sourcePoint" />
            <Array as="points">
              <mxPoint x="20" y="80" />
            </Array>
            <mxPoint as="offset" />
          </mxGeometry>
        </mxCell>
        <mxCell id="ykaJu9SZ5LzuRN2qTZnT-4" value="" style="html=1;points=[];perimeter=orthogonalPerimeter;outlineConnect=0;targetShapes=umlLifeline;portConstraint=eastwest;newEdgeStyle={&quot;edgeStyle&quot;:&quot;elbowEdgeStyle&quot;,&quot;elbow&quot;:&quot;vertical&quot;,&quot;curved&quot;:0,&quot;rounded&quot;:0};" parent="ykaJu9SZ5LzuRN2qTZnT-1" vertex="1">
          <mxGeometry x="45" y="220" width="10" height="130" as="geometry" />
        </mxCell>
        <mxCell id="ykaJu9SZ5LzuRN2qTZnT-5" value="" style="html=1;points=[];perimeter=orthogonalPerimeter;outlineConnect=0;targetShapes=umlLifeline;portConstraint=eastwest;newEdgeStyle={&quot;edgeStyle&quot;:&quot;elbowEdgeStyle&quot;,&quot;elbow&quot;:&quot;vertical&quot;,&quot;curved&quot;:0,&quot;rounded&quot;:0};" parent="ykaJu9SZ5LzuRN2qTZnT-1" vertex="1">
          <mxGeometry x="45" y="370" width="10" height="210" as="geometry" />
        </mxCell>
        <mxCell id="ykaJu9SZ5LzuRN2qTZnT-6" value="Phemex" style="shape=umlLifeline;perimeter=lifelinePerimeter;whiteSpace=wrap;html=1;container=0;dropTarget=0;collapsible=0;recursiveResize=0;outlineConnect=0;portConstraint=eastwest;newEdgeStyle={&quot;edgeStyle&quot;:&quot;elbowEdgeStyle&quot;,&quot;elbow&quot;:&quot;vertical&quot;,&quot;curved&quot;:0,&quot;rounded&quot;:0};" parent="1" vertex="1">
          <mxGeometry x="310" y="40" width="100" height="620" as="geometry" />
        </mxCell>
        <mxCell id="ykaJu9SZ5LzuRN2qTZnT-7" value="" style="html=1;points=[];perimeter=orthogonalPerimeter;outlineConnect=0;targetShapes=umlLifeline;portConstraint=eastwest;newEdgeStyle={&quot;edgeStyle&quot;:&quot;elbowEdgeStyle&quot;,&quot;elbow&quot;:&quot;vertical&quot;,&quot;curved&quot;:0,&quot;rounded&quot;:0};" parent="ykaJu9SZ5LzuRN2qTZnT-6" vertex="1">
          <mxGeometry x="45" y="80" width="10" height="110" as="geometry" />
        </mxCell>
        <mxCell id="ykaJu9SZ5LzuRN2qTZnT-8" value="" style="html=1;points=[];perimeter=orthogonalPerimeter;outlineConnect=0;targetShapes=umlLifeline;portConstraint=eastwest;newEdgeStyle={&quot;edgeStyle&quot;:&quot;elbowEdgeStyle&quot;,&quot;elbow&quot;:&quot;vertical&quot;,&quot;curved&quot;:0,&quot;rounded&quot;:0};" parent="ykaJu9SZ5LzuRN2qTZnT-6" vertex="1">
          <mxGeometry x="45" y="360" width="10" height="220" as="geometry" />
        </mxCell>
        <mxCell id="ykaJu9SZ5LzuRN2qTZnT-9" value="/phemex-user/twitter-login" style="html=1;verticalAlign=bottom;endArrow=block;edgeStyle=elbowEdgeStyle;elbow=vertical;curved=0;rounded=0;" parent="1" source="ykaJu9SZ5LzuRN2qTZnT-2" target="ykaJu9SZ5LzuRN2qTZnT-7" edge="1">
          <mxGeometry relative="1" as="geometry">
            <mxPoint x="285" y="130" as="sourcePoint" />
            <Array as="points">
              <mxPoint x="270" y="120" />
            </Array>
          </mxGeometry>
        </mxCell>
        <mxCell id="ykaJu9SZ5LzuRN2qTZnT-10" value="oauth token &amp;amp; secret" style="html=1;verticalAlign=bottom;endArrow=open;dashed=1;endSize=8;edgeStyle=elbowEdgeStyle;elbow=vertical;curved=0;rounded=0;" parent="1" source="ykaJu9SZ5LzuRN2qTZnT-12" target="ykaJu9SZ5LzuRN2qTZnT-6" edge="1">
          <mxGeometry relative="1" as="geometry">
            <mxPoint x="440" y="280" as="targetPoint" />
            <Array as="points">
              <mxPoint x="460" y="180" />
            </Array>
            <mxPoint x="355" y="200" as="sourcePoint" />
          </mxGeometry>
        </mxCell>
        <mxCell id="ykaJu9SZ5LzuRN2qTZnT-11" value="Twitter" style="shape=umlLifeline;perimeter=lifelinePerimeter;whiteSpace=wrap;html=1;container=0;dropTarget=0;collapsible=0;recursiveResize=0;outlineConnect=0;portConstraint=eastwest;newEdgeStyle={&quot;edgeStyle&quot;:&quot;elbowEdgeStyle&quot;,&quot;elbow&quot;:&quot;vertical&quot;,&quot;curved&quot;:0,&quot;rounded&quot;:0};" parent="1" vertex="1">
          <mxGeometry x="515" y="40" width="100" height="620" as="geometry" />
        </mxCell>
        <mxCell id="ykaJu9SZ5LzuRN2qTZnT-12" value="" style="html=1;points=[];perimeter=orthogonalPerimeter;outlineConnect=0;targetShapes=umlLifeline;portConstraint=eastwest;newEdgeStyle={&quot;edgeStyle&quot;:&quot;elbowEdgeStyle&quot;,&quot;elbow&quot;:&quot;vertical&quot;,&quot;curved&quot;:0,&quot;rounded&quot;:0};" parent="ykaJu9SZ5LzuRN2qTZnT-11" vertex="1">
          <mxGeometry x="45" y="80" width="10" height="80" as="geometry" />
        </mxCell>
        <mxCell id="ykaJu9SZ5LzuRN2qTZnT-13" value="" style="html=1;points=[];perimeter=orthogonalPerimeter;outlineConnect=0;targetShapes=umlLifeline;portConstraint=eastwest;newEdgeStyle={&quot;edgeStyle&quot;:&quot;elbowEdgeStyle&quot;,&quot;elbow&quot;:&quot;vertical&quot;,&quot;curved&quot;:0,&quot;rounded&quot;:0};" parent="ykaJu9SZ5LzuRN2qTZnT-11" vertex="1">
          <mxGeometry x="45" y="210" width="10" height="130" as="geometry" />
        </mxCell>
        <mxCell id="ykaJu9SZ5LzuRN2qTZnT-14" value="用户授权" style="html=1;verticalAlign=bottom;endArrow=block;edgeStyle=elbowEdgeStyle;rounded=0;" parent="ykaJu9SZ5LzuRN2qTZnT-11" source="ykaJu9SZ5LzuRN2qTZnT-13" target="ykaJu9SZ5LzuRN2qTZnT-13" edge="1">
          <mxGeometry relative="1" as="geometry">
            <mxPoint x="65" y="230" as="sourcePoint" />
            <Array as="points">
              <mxPoint x="135" y="230" />
            </Array>
            <mxPoint x="449.5" y="230" as="targetPoint" />
          </mxGeometry>
        </mxCell>
        <mxCell id="ykaJu9SZ5LzuRN2qTZnT-15" value="" style="html=1;points=[];perimeter=orthogonalPerimeter;outlineConnect=0;targetShapes=umlLifeline;portConstraint=eastwest;newEdgeStyle={&quot;edgeStyle&quot;:&quot;elbowEdgeStyle&quot;,&quot;elbow&quot;:&quot;vertical&quot;,&quot;curved&quot;:0,&quot;rounded&quot;:0};" parent="ykaJu9SZ5LzuRN2qTZnT-11" vertex="1">
          <mxGeometry x="45" y="360" width="10" height="130" as="geometry" />
        </mxCell>
        <mxCell id="ykaJu9SZ5LzuRN2qTZnT-16" value="oauth/request_token" style="html=1;verticalAlign=bottom;endArrow=block;edgeStyle=elbowEdgeStyle;elbow=vertical;curved=0;rounded=0;" parent="1" source="ykaJu9SZ5LzuRN2qTZnT-7" target="ykaJu9SZ5LzuRN2qTZnT-12" edge="1">
          <mxGeometry relative="1" as="geometry">
            <mxPoint x="360" y="130" as="sourcePoint" />
            <Array as="points">
              <mxPoint x="445" y="130" />
            </Array>
            <mxPoint x="530" y="130" as="targetPoint" />
          </mxGeometry>
        </mxCell>
        <mxCell id="ykaJu9SZ5LzuRN2qTZnT-17" value="App Key&amp;amp;Secret" style="text;html=1;align=center;verticalAlign=middle;resizable=0;points=[];autosize=1;strokeColor=none;fillColor=none;" parent="1" vertex="1">
          <mxGeometry x="405" y="78" width="110" height="30" as="geometry" />
        </mxCell>
        <mxCell id="ykaJu9SZ5LzuRN2qTZnT-18" value="oauth token &amp;amp; secret" style="html=1;verticalAlign=bottom;endArrow=open;dashed=1;endSize=8;edgeStyle=elbowEdgeStyle;elbow=vertical;curved=0;rounded=0;" parent="1" source="ykaJu9SZ5LzuRN2qTZnT-7" target="ykaJu9SZ5LzuRN2qTZnT-1" edge="1">
          <mxGeometry x="-0.0281" y="-10" relative="1" as="geometry">
            <mxPoint x="50" y="210" as="targetPoint" />
            <Array as="points">
              <mxPoint x="335" y="210" />
            </Array>
            <mxPoint x="230" y="210" as="sourcePoint" />
            <mxPoint as="offset" />
          </mxGeometry>
        </mxCell>
        <mxCell id="ykaJu9SZ5LzuRN2qTZnT-19" value="redirect to /twitter-login 拼接上 token &amp;amp; secrect" style="html=1;verticalAlign=bottom;endArrow=block;edgeStyle=elbowEdgeStyle;rounded=0;" parent="1" source="ykaJu9SZ5LzuRN2qTZnT-1" edge="1">
          <mxGeometry relative="1" as="geometry">
            <mxPoint x="190" y="260" as="sourcePoint" />
            <Array as="points">
              <mxPoint x="250" y="300" />
            </Array>
            <mxPoint x="564.5" y="300" as="targetPoint" />
          </mxGeometry>
        </mxCell>
        <mxCell id="ykaJu9SZ5LzuRN2qTZnT-20" value="oauth token &amp;amp;&amp;nbsp;verifier" style="html=1;verticalAlign=bottom;endArrow=open;dashed=1;endSize=8;edgeStyle=elbowEdgeStyle;elbow=vertical;curved=0;rounded=0;" parent="1" edge="1">
          <mxGeometry x="-0.0281" y="-10" relative="1" as="geometry">
            <mxPoint x="180" y="360" as="targetPoint" />
            <Array as="points">
              <mxPoint x="335" y="360" />
            </Array>
            <mxPoint x="564.5000000000005" y="360" as="sourcePoint" />
            <mxPoint as="offset" />
          </mxGeometry>
        </mxCell>
        <mxCell id="ykaJu9SZ5LzuRN2qTZnT-21" value="oauth/access_token" style="html=1;verticalAlign=bottom;endArrow=block;edgeStyle=elbowEdgeStyle;rounded=0;" parent="1" edge="1">
          <mxGeometry x="-0.0834" y="10" relative="1" as="geometry">
            <mxPoint x="179.63043478260875" y="430" as="sourcePoint" />
            <Array as="points">
              <mxPoint x="290" y="430" />
            </Array>
            <mxPoint x="355" y="430" as="targetPoint" />
            <mxPoint as="offset" />
          </mxGeometry>
        </mxCell>
        <mxCell id="ykaJu9SZ5LzuRN2qTZnT-22" value="包装转发" style="html=1;verticalAlign=bottom;endArrow=block;edgeStyle=elbowEdgeStyle;rounded=0;" parent="1" source="ykaJu9SZ5LzuRN2qTZnT-8" target="ykaJu9SZ5LzuRN2qTZnT-15" edge="1">
          <mxGeometry x="-0.0834" y="10" relative="1" as="geometry">
            <mxPoint x="372.31043478260875" y="440" as="sourcePoint" />
            <Array as="points">
              <mxPoint x="482.68" y="440" />
            </Array>
            <mxPoint x="547.6800000000001" y="440" as="targetPoint" />
            <mxPoint as="offset" />
          </mxGeometry>
        </mxCell>
        <mxCell id="ykaJu9SZ5LzuRN2qTZnT-23" value="oauth token &amp;amp;&amp;nbsp;verifier" style="html=1;verticalAlign=bottom;endArrow=open;dashed=1;endSize=8;edgeStyle=elbowEdgeStyle;elbow=vertical;curved=0;rounded=0;" parent="1" edge="1">
          <mxGeometry x="-0.0281" y="-10" relative="1" as="geometry">
            <mxPoint x="362.5" y="490" as="targetPoint" />
            <Array as="points">
              <mxPoint x="477.5" y="490" />
            </Array>
            <mxPoint x="557.5" y="490" as="sourcePoint" />
            <mxPoint as="offset" />
          </mxGeometry>
        </mxCell>
        <mxCell id="ykaJu9SZ5LzuRN2qTZnT-24" value="（绑定用户）&lt;br&gt;返 phemex token 类似 /login 接口" style="html=1;verticalAlign=bottom;endArrow=open;dashed=1;endSize=8;edgeStyle=elbowEdgeStyle;elbow=vertical;curved=0;rounded=0;" parent="1" source="ykaJu9SZ5LzuRN2qTZnT-8" target="ykaJu9SZ5LzuRN2qTZnT-5" edge="1">
          <mxGeometry x="-0.0281" y="-10" relative="1" as="geometry">
            <mxPoint x="170" y="510" as="targetPoint" />
            <Array as="points">
              <mxPoint x="285" y="510" />
            </Array>
            <mxPoint x="365" y="510" as="sourcePoint" />
            <mxPoint as="offset" />
          </mxGeometry>
        </mxCell>
        <mxCell id="ykaJu9SZ5LzuRN2qTZnT-25" value="是否登录" style="shape=umlFrame;whiteSpace=wrap;html=1;pointerEvents=0;" parent="1" vertex="1">
          <mxGeometry x="40" y="450" width="340" height="210" as="geometry" />
        </mxCell>
        <mxCell id="ykaJu9SZ5LzuRN2qTZnT-26" value="" style="endArrow=none;dashed=1;html=1;rounded=0;exitX=-0.003;exitY=0.521;exitDx=0;exitDy=0;exitPerimeter=0;entryX=1;entryY=0.517;entryDx=0;entryDy=0;entryPerimeter=0;" parent="1" source="ykaJu9SZ5LzuRN2qTZnT-25" target="ykaJu9SZ5LzuRN2qTZnT-25" edge="1">
          <mxGeometry width="50" height="50" relative="1" as="geometry">
            <mxPoint x="410" y="460" as="sourcePoint" />
            <mxPoint x="460" y="410" as="targetPoint" />
          </mxGeometry>
        </mxCell>
        <mxCell id="ykaJu9SZ5LzuRN2qTZnT-27" value="登录" style="text;html=1;align=center;verticalAlign=middle;resizable=0;points=[];autosize=1;strokeColor=none;fillColor=none;" parent="1" vertex="1">
          <mxGeometry x="45" y="488" width="50" height="30" as="geometry" />
        </mxCell>
        <mxCell id="ykaJu9SZ5LzuRN2qTZnT-28" value="未登录" style="text;html=1;align=center;verticalAlign=middle;resizable=0;points=[];autosize=1;strokeColor=none;fillColor=none;" parent="1" vertex="1">
          <mxGeometry x="40" y="570" width="60" height="30" as="geometry" />
        </mxCell>
        <mxCell id="ykaJu9SZ5LzuRN2qTZnT-29" value="（新建用户）&lt;br&gt;返 phemex token 类似 /login 接口" style="html=1;verticalAlign=bottom;endArrow=open;dashed=1;endSize=8;edgeStyle=elbowEdgeStyle;elbow=vertical;curved=0;rounded=0;" parent="1" source="ykaJu9SZ5LzuRN2qTZnT-8" target="ykaJu9SZ5LzuRN2qTZnT-5" edge="1">
          <mxGeometry x="-0.0281" y="-10" relative="1" as="geometry">
            <mxPoint x="190" y="590" as="targetPoint" />
            <Array as="points">
              <mxPoint x="290" y="590" />
            </Array>
            <mxPoint x="340" y="590" as="sourcePoint" />
            <mxPoint as="offset" />
          </mxGeometry>
        </mxCell>
      </root>
    </mxGraphModel>
  </diagram>
</mxfile>
